<svg width="18" height="13" viewBox="0 0 18 13" fill="none" xmlns="http://www.w3.org/2000/svg">
<path d="M0.613636 0C0.450895 1.62717e-05 0.294824 0.0646757 0.179748 0.179751C0.0646723 0.294827 1.62717e-05 0.450895 0 0.613636V11.6591C1.62717e-05 11.8218 0.0646723 11.9779 0.179748 12.093C0.294824 12.2081 0.450895 12.2727 0.613636 12.2727H17.3864C17.5491 12.2727 17.7052 12.2081 17.8203 12.093C17.9353 11.9779 18 11.8218 18 11.6591V0.613636C18 0.450895 17.9353 0.294827 17.8203 0.179751C17.7052 0.0646757 17.5491 1.62717e-05 17.3864 0H0.613636V0ZM2.35227 1.22727H15.6477L9 6.5774L2.35227 1.22727ZM1.22727 1.89205L8.61648 7.83665C8.72532 7.92378 8.86058 7.97126 9 7.97126C9.13942 7.97126 9.27468 7.92378 9.38352 7.83665L16.7727 1.89205V11.0455H1.22727V1.89205Z" fill="#15202D"/>
</svg>
