<svg width="18" height="17" viewBox="0 0 18 17" fill="none" xmlns="http://www.w3.org/2000/svg">
<path d="M4.34591 1.99673C4.34366 3.09283 3.44276 3.98014 2.33267 3.98014C2.27306 3.98014 2.21457 3.97792 2.15609 3.97237H2.16396C2.11897 3.9757 2.06611 3.97792 2.01325 3.97792C0.9009 3.97792 0 3.08839 0 1.99007C0 0.891756 0.9009 0.00222106 2.01325 0.00222106C2.06611 0.00222106 2.11897 0.00444212 2.17071 0.00777371H2.16396C2.21795 0.00222106 2.28093 0 2.34391 0C3.44951 0 4.34591 0.885093 4.34591 1.97674C4.34591 1.98341 4.34591 1.99007 4.34591 1.99673V1.99562V1.99673ZM0.229443 17H4.08723V5.53933H0.229443V17ZM13.5574 5.2728C13.5247 5.27169 13.4854 5.27169 13.446 5.27169C12.0356 5.27169 10.8029 6.02352 10.1371 7.14293L10.127 7.1607V5.53933H6.22419C6.22419 6.64986 6.22419 17 6.22419 17H10.127V10.5922C10.1247 10.5511 10.1236 10.5034 10.1236 10.4545C10.1236 10.1702 10.1697 9.89705 10.2563 9.64051L10.2507 9.65828C10.5454 8.84204 11.3192 8.26679 12.2291 8.25902H12.2302C13.6248 8.25902 14.1872 9.31402 14.1872 10.8466V16.9767H18V10.4245C18 6.90417 16.0992 5.27169 13.5574 5.27169V5.2728Z" fill="#15202D"/>
</svg>
