<svg width="16" height="16" viewBox="0 0 16 16" fill="none" xmlns="http://www.w3.org/2000/svg">
<path d="M14.8968 1.16627L14.8338 1.10311C13.3628 -0.367705 10.9558 -0.367705 9.485 1.10311L6.0771 4.5115C4.60628 5.98232 4.60628 8.38927 6.0771 9.86012L6.14003 9.92302C6.26241 10.0456 6.39231 10.1562 6.52653 10.2583L7.77416 9.01058C7.62881 8.92474 7.49094 8.82202 7.36606 8.69721L7.30291 8.63405C6.50425 7.83564 6.50425 6.53604 7.30291 5.73732L10.7112 2.32931C11.5099 1.53058 12.8092 1.53058 13.6078 2.32931L13.671 2.39218C14.4694 3.1909 14.4694 4.4905 13.671 5.28891L12.129 6.83089C12.3967 7.49195 12.5235 8.19652 12.5124 8.89943L14.8969 6.51498C16.3677 5.0441 16.3677 2.63721 14.8968 1.16627ZM9.86003 6.0771C9.73766 5.95473 9.60775 5.84394 9.4735 5.7421L8.22588 6.98948C8.37122 7.07536 8.50906 7.17814 8.63397 7.30295L8.69713 7.36608C9.49582 8.1648 9.49582 9.46412 8.69713 10.2628L5.28881 13.6711C4.49009 14.4697 3.19075 14.4697 2.39213 13.6711L2.32897 13.608C1.53056 12.8092 1.53056 11.5099 2.32897 10.7113L3.87097 9.1693C3.60328 8.5083 3.4765 7.80364 3.48756 7.10079L1.10316 9.48515C-0.367719 10.9559 -0.367719 13.3629 1.10316 14.834L1.16606 14.897C2.63719 16.3677 5.04406 16.3677 6.51494 14.897L9.92291 11.4889C11.3937 10.0181 11.3937 7.61076 9.92291 6.13998L9.86003 6.0771Z" fill="#15202D"/>
</svg>
