<svg width="20" height="16" viewBox="0 0 20 16" fill="none" xmlns="http://www.w3.org/2000/svg">
<path d="M17.2248 3.86686C17.2248 4.03868 17.2248 4.20095 17.2248 4.37277C17.2248 4.38041 17.2248 4.389 17.2248 4.39759C17.2248 10.5496 12.2373 15.5371 6.08523 15.5371C3.84014 15.5371 1.74968 14.8728 0 13.7302L0.0429545 13.756C0.329318 13.7922 0.660545 13.8132 0.996545 13.8132H0.9975C1.00227 13.8132 1.008 13.8132 1.01373 13.8132C2.85314 13.8132 4.54459 13.1804 5.88191 12.1208L5.86568 12.1332C4.16086 12.0979 2.72523 10.9801 2.21741 9.44045L2.20977 9.41277C2.43218 9.45764 2.68705 9.48341 2.94859 9.48341C3.31418 9.48341 3.66736 9.43377 4.00336 9.33927L3.97568 9.34595C2.18018 8.97082 0.848591 7.40632 0.835227 5.52873V5.48005C1.34782 5.76927 1.95586 5.94682 2.60495 5.96686H2.61068C1.53777 5.25573 0.839045 4.05205 0.839045 2.68609C0.839045 1.96064 1.03568 1.281 1.37932 0.697773L1.36977 0.715909C3.31036 3.09082 6.18068 4.64291 9.4185 4.80995L9.44523 4.81091C9.37936 4.54173 9.34118 4.23245 9.34023 3.91459V3.91364C9.34595 1.75064 11.1004 0 13.2634 0C14.3869 0 15.4006 0.4725 16.1156 1.22945L16.1175 1.23136C17.0568 1.04141 17.892 0.711136 18.6442 0.256773L18.6089 0.276818C18.3072 1.19986 17.6992 1.953 16.9079 2.43409L16.8907 2.44364C17.7221 2.34723 18.48 2.13532 19.1835 1.82223L19.1339 1.84227C18.6098 2.63359 17.976 3.30368 17.2458 3.85064L17.2248 3.86591V3.86686Z" fill="#15202D"/>
</svg>
