<svg width="153" height="98" viewBox="0 0 153 98" fill="none" xmlns="http://www.w3.org/2000/svg">
<g clip-path="url(#clip0)">
<path d="M108.546 61.7646H105.638V67.1676H108.546C110.047 67.1676 111.256 65.9572 111.256 64.4551C111.256 62.9531 110.047 61.7646 108.546 61.7646Z" fill="black"/>
<path d="M27.6917 31.6742C27.6917 39.3275 21.4959 45.5337 13.8486 45.5337C6.20686 45.5337 0 39.3275 0 31.6742C0 24.0209 6.20686 17.8147 13.8486 17.8147C21.4959 17.8147 27.6917 24.0209 27.6917 31.6742Z" fill="black"/>
<path d="M87.6273 31.6742C87.6273 39.3275 81.4314 45.5337 73.7787 45.5337C66.1314 45.5337 59.9246 39.333 59.9246 31.6742C59.9246 24.0209 66.1314 17.8147 73.7787 17.8147C81.4314 17.8147 87.6273 24.0209 87.6273 31.6742Z" fill="black"/>
<path d="M27.6917 66.2927C27.6917 73.9515 21.4959 80.1522 13.8486 80.1522C6.20686 80.1522 0 73.9515 0 66.2927C0 58.645 6.20686 52.4387 13.8486 52.4387C21.4959 52.4387 27.6917 58.645 27.6917 66.2927Z" fill="black"/>
<path d="M57.665 48.9891C57.665 56.6424 51.4581 62.8486 43.8164 62.8486C36.1691 62.8486 29.9678 56.6479 29.9678 48.9891C29.9678 41.3304 36.1691 35.1296 43.8164 35.1296C51.4581 35.1296 57.665 41.3304 57.665 48.9891Z" fill="black"/>
<path d="M57.6649 14.3595C57.6649 22.0128 51.458 28.219 43.8163 28.219C36.169 28.219 29.9622 22.0128 29.9622 14.3595C29.9622 6.71174 36.169 0.5 43.8108 0.5C51.458 0.5 57.6649 6.71174 57.6649 14.3595Z" fill="black"/>
<path d="M57.665 83.6129C57.665 91.2662 51.4581 97.4724 43.8164 97.4724C36.1691 97.4724 29.9678 91.2607 29.9678 83.6129C29.9678 75.9597 36.1691 69.7534 43.8164 69.7534C51.4581 69.7534 57.665 75.9597 57.665 83.6129Z" fill="black"/>
<path d="M131.598 52.3398H73.7346C66.0818 52.3398 59.886 58.5406 59.886 66.1993C59.886 73.8526 66.0818 80.0643 73.7346 80.0643H131.592C139.25 80.0643 145.446 73.8581 145.446 66.1993C145.452 58.5406 139.256 52.3398 131.598 52.3398ZM74.8946 70.7825C76.3185 70.7825 77.1596 70.2268 78.0008 68.9448L80.6782 70.3863C79.5896 72.4331 77.6874 73.649 74.8011 73.649C70.6504 73.649 67.8631 70.755 67.8631 66.1993C67.8631 61.8033 70.7659 58.7552 74.9166 58.7552C77.9128 58.7552 79.7326 60.0756 80.7276 61.9518L77.7809 63.1843C77.2146 62.1994 76.302 61.6162 74.8781 61.6162C72.4976 61.6162 71.1287 63.5144 71.1287 66.1993C71.1232 68.8018 72.5141 70.7825 74.8946 70.7825ZM91.2996 70.7825C92.729 70.7825 93.5647 70.2268 94.4058 68.9448L97.0777 70.3863C95.9891 72.4331 94.087 73.649 91.2007 73.649C87.0499 73.649 84.2571 70.755 84.2571 66.1993C84.2571 61.8033 87.1599 58.7552 91.3106 58.7552C94.3069 58.7552 96.1211 60.0756 97.1217 61.9518L94.1639 63.1843C93.5977 62.1994 92.6905 61.6162 91.2557 61.6162C88.8752 61.6162 87.5227 63.5144 87.5227 66.1993C87.5392 68.8018 88.9191 70.7825 91.2996 70.7825ZM109.326 69.9572L105.638 69.9792V73.4234H102.46V58.9697L109.326 58.9477C112.361 58.9477 114.83 61.4181 114.83 64.4607C114.83 67.4978 112.361 69.9572 109.326 69.9572Z" fill="black"/>
<path d="M147.651 76.8565C147.651 78.2485 148.695 79.3489 150.103 79.3489C151.51 79.3489 152.555 78.2485 152.555 76.8565C152.555 75.4645 151.51 74.3641 150.103 74.3641C148.695 74.3641 147.651 75.4645 147.651 76.8565ZM153 76.8565C153 78.4906 151.736 79.7615 150.097 79.7615C148.459 79.7615 147.195 78.4906 147.195 76.8565C147.195 75.2279 148.459 73.9514 150.097 73.9514C151.736 73.9514 153 75.2224 153 76.8565Z" fill="black"/>
<path d="M149.971 76.653H149.443V75.5251H150.18C150.575 75.5251 150.955 75.6296 150.955 76.0863C150.949 76.6365 150.466 76.653 149.971 76.653ZM150.531 76.9941C150.971 76.9171 151.351 76.6585 151.351 76.0808C151.351 75.4976 151.026 75.1785 150.29 75.1785H149.036V78.4411H149.437V76.9941H150.114L151.032 78.4411H151.505L150.531 76.9941Z" fill="black"/>
</g>
<defs>
<clipPath >
<rect width="153" height="97" fill="white" transform="translate(0 0.5)"/>
</clipPath>
</defs>
</svg>
