<svg width="79" height="109" viewBox="0 0 79 109" fill="none" xmlns="http://www.w3.org/2000/svg">
<path d="M12.4495 99.1964H1.9652V91.477H0.538574V108.346H1.9652V100.531H12.4495V108.346H13.8761V91.477H12.4495V99.1964ZM47.7514 96.3608V96.3149C47.7514 95.0966 47.2676 93.9525 46.4625 93.1473C45.442 92.1233 43.7681 91.477 41.7024 91.477H34.601V108.346H36.0276V101.435H41.3457L46.6567 108.346H48.4718L42.9489 101.195C45.7033 100.778 47.7549 99.1505 47.7514 96.3608V96.3608ZM36.0276 100.125V92.8119H41.6282C44.6298 92.8225 46.3177 94.182 46.3212 96.3608V96.4067C46.3212 98.7479 44.3155 100.118 41.5541 100.122H36.0241L36.0276 100.125ZM63.3066 96.7174V96.6715C63.303 93.3945 60.7181 91.4806 57.0174 91.477H50.8695V108.346H52.2996V102.127H56.7066C60.2132 102.12 63.2995 100.288 63.303 96.7174H63.3066ZM56.7808 100.789H52.2996V92.8083H56.9221C59.9024 92.8154 61.8729 94.1573 61.8799 96.7386V96.788C61.8764 99.1999 59.8495 100.782 56.7808 100.785V100.789ZM23.5835 91.357L15.7265 108.346H17.2237L19.3707 103.621L19.8828 102.53H28.5273L29.0358 103.621L31.1828 108.346H32.7542L24.8936 91.357H23.5835V91.357ZM20.469 101.237L24.2121 93.0414L27.9375 101.237H20.469ZM70.7398 91.357H69.4262L61.5727 108.346H63.07L65.217 103.621L65.7255 102.53H74.3735L74.882 103.621L77.029 108.346H78.5969L70.7434 91.357H70.7398ZM66.3187 101.237L70.0618 93.0414L73.7873 101.237H66.3187ZM32.9484 44.695C33.5805 44.3313 33.7994 43.5227 33.4322 42.8906C33.0649 42.2585 32.2598 42.0431 31.6242 42.4068C31.2428 42.6257 31.0133 43.0106 30.9744 43.4238L25.441 46.616C24.5193 45.592 23.3964 45.5355 21.9485 46.3724L4.93498 56.1928L5.57414 57.3087L22.7113 47.4106C23.753 46.8103 24.3957 47.3082 24.7276 47.8908C25.0666 48.4805 25.1796 49.2821 24.1379 49.886L6.99723 59.777L7.63992 60.8894L24.6994 51.0407C26.1119 50.2285 26.5992 49.1585 26.2143 47.9367L31.7372 44.748C32.115 44.9175 32.56 44.9105 32.9449 44.6915L32.9484 44.695ZM35.505 47.9403C35.9111 47.8979 36.2995 47.6719 36.522 47.287C36.8857 46.6549 36.6668 45.8498 36.0382 45.4825C35.4026 45.1188 34.5975 45.3377 34.2302 45.9628C34.0078 46.3477 34.0042 46.7926 34.1737 47.1705L30.978 52.7039C29.6679 52.2802 28.6685 52.7887 27.8351 54.2365L18.0077 71.2536L19.12 71.8963L29.0146 54.7556C29.6149 53.7174 30.4235 53.8269 31.0027 54.1623C31.5889 54.5013 32.0903 55.144 31.4865 56.1893L21.5884 73.3264L22.7042 73.9691L32.5529 56.9132C33.3651 55.5042 33.2556 54.3354 32.3128 53.4667L35.5015 47.9438L35.505 47.9403ZM42.285 77.7511V58.0538C42.285 56.4259 41.607 55.4654 40.3534 55.1899V48.8125C40.6924 48.5724 40.9078 48.1804 40.9078 47.739C40.9078 47.0115 40.3146 46.4183 39.5836 46.4183C38.8526 46.4183 38.2665 47.008 38.2665 47.739C38.2665 48.1804 38.4819 48.5724 38.8173 48.8125V55.197C37.4719 55.4865 36.861 56.4259 36.861 58.0997V77.7475H38.1429V57.9584C38.1429 56.7578 38.8985 56.4506 39.5695 56.4506C40.2475 56.4506 40.9996 56.7578 40.9996 57.9584V77.7475H42.285V77.7511ZM48.1363 54.1553C48.726 53.8163 49.5311 53.7033 50.1315 54.745L60.026 71.8857L61.1419 71.243L51.2932 54.187C50.4775 52.7745 49.4111 52.2837 48.1893 52.6721L44.997 47.1493C45.1665 46.775 45.163 46.3265 44.9405 45.9416C44.5733 45.3095 43.7681 45.0941 43.1325 45.4578C42.504 45.8215 42.285 46.6302 42.6487 47.2587C42.8712 47.6401 43.2561 47.8767 43.6657 47.912L46.858 53.449C45.8375 54.3707 45.7774 55.4936 46.6143 56.9414L56.4418 73.955L57.5541 73.3123L47.6596 56.1716C47.0593 55.1334 47.5607 54.4907 48.1363 54.1553V54.1553ZM56.4277 47.4L73.5684 57.291L74.211 56.1787L57.1551 46.33C55.7426 45.5143 54.5702 45.6273 53.7086 46.5737L48.1822 43.385C48.1469 42.9718 47.9138 42.5869 47.5325 42.3644C46.9004 42.0007 46.0882 42.2161 45.7245 42.8482C45.3607 43.4803 45.5761 44.289 46.2082 44.6527C46.5896 44.8751 47.0416 44.8787 47.4195 44.7092L52.9494 47.9014C52.5292 49.215 53.0377 50.2144 54.4855 51.0478L71.5026 60.8717L72.1453 59.7558L55.0046 49.8613C53.9629 49.261 54.0759 48.4558 54.4078 47.8767C54.7468 47.2905 55.3895 46.7891 56.4312 47.3929L56.4277 47.4ZM58.2074 37.8868H78.0001V36.605H58.3063C56.6749 36.605 55.7179 37.283 55.4425 38.533H49.065C48.8249 38.1975 48.4329 37.9786 47.9915 37.9786C47.2606 37.9786 46.6638 38.5719 46.6638 39.3028C46.6638 40.0338 47.257 40.6235 47.988 40.6235C48.4329 40.6235 48.8214 40.4046 49.0615 40.0726H55.4495C55.7426 41.418 56.6784 42.029 58.3487 42.029H77.9966V40.7471H58.2074C57.0068 40.7471 56.696 39.995 56.696 39.3205C56.696 38.6425 57.0033 37.8903 58.2039 37.8903L58.2074 37.8868ZM52.9176 30.7042L47.3947 33.893C47.0204 33.7235 46.5684 33.727 46.1835 33.9495C45.5514 34.3167 45.336 35.1254 45.6997 35.7539C46.0635 36.3825 46.8721 36.6014 47.5077 36.2377C47.8926 36.0152 48.1222 35.6339 48.161 35.2242L53.6945 32.0285C54.6161 33.0525 55.7426 33.109 57.1869 32.2721L74.204 22.4482L73.5613 21.3358L56.4241 31.2339C55.3824 31.8342 54.7397 31.3363 54.4043 30.7572C54.0653 30.1675 53.9523 29.3624 54.9975 28.762L72.1347 18.8675L71.492 17.7551L54.436 27.6003C53.0235 28.416 52.5362 29.4824 52.9211 30.7078L52.9176 30.7042ZM43.0972 33.1655C43.7258 33.5328 44.5344 33.3174 44.8946 32.6817C45.1171 32.3004 45.1241 31.8554 44.9546 31.4776L48.154 25.9441C49.4641 26.3643 50.4634 25.8558 51.3003 24.408L61.1242 7.39446L60.0119 6.74824L50.1173 23.8889C49.517 24.9306 48.7119 24.8176 48.1292 24.4822C47.5431 24.1432 47.0416 23.5005 47.6455 22.4588L57.5436 5.31808L56.4312 4.67539L46.579 21.7349C45.7633 23.1438 45.8763 24.3127 46.8227 25.1778L43.6304 30.7042C43.2208 30.7431 42.8359 30.9726 42.6099 31.3575C42.2497 31.9861 42.4686 32.7947 43.1007 33.1585L43.0972 33.1655ZM38.7785 23.451V29.8285C38.4395 30.0686 38.2205 30.4606 38.2205 30.902C38.2205 31.633 38.8138 32.2262 39.5448 32.2262C40.2757 32.2262 40.8655 31.633 40.8655 30.902C40.8655 30.4606 40.65 30.0721 40.3146 29.8285V23.4405C41.6635 23.1544 42.2709 22.2116 42.2709 20.5378V0.889893H40.9855V20.6825C40.9855 21.8867 40.2334 22.1939 39.566 22.1939C38.888 22.1939 38.1323 21.8867 38.1323 20.6825V0.889893H36.8504V20.5872C36.8504 22.2186 37.5284 23.1756 38.782 23.451H38.7785ZM30.9497 25.9724L34.1349 31.4988C33.9654 31.8731 33.9725 32.3215 34.1914 32.7065C34.5586 33.3385 35.3638 33.554 35.9959 33.1902C36.628 32.8265 36.8434 32.0179 36.4796 31.3858C36.2572 31.0044 35.8723 30.7713 35.4662 30.7325L32.2704 25.199C33.2909 24.2738 33.351 23.1544 32.514 21.7066L22.6901 4.68952L21.5778 5.3322L31.4723 22.4694C32.0726 23.5111 31.5747 24.1502 30.9956 24.4892C30.4059 24.8282 29.6078 24.9377 29.0005 23.896L19.1094 6.75883L17.9971 7.39799L27.8422 24.4575C28.6579 25.8664 29.7208 26.3537 30.9462 25.9688L30.9497 25.9724ZM25.4268 32.0744L30.9497 35.2595C30.9921 35.6727 31.2181 36.0576 31.603 36.2801C32.2315 36.6438 33.0402 36.4284 33.4075 35.7963C33.7747 35.1642 33.5593 34.3555 32.9272 33.9918C32.5423 33.7694 32.0903 33.7658 31.716 33.9353L26.1825 30.7431C26.6063 29.433 26.0942 28.4336 24.6535 27.5967L7.63286 17.7728L6.99017 18.8851L24.1309 28.7797C25.1726 29.3835 25.0596 30.1851 24.7241 30.7678C24.3816 31.354 23.7424 31.8554 22.7007 31.2516L5.56001 21.3535L4.91732 22.4694L21.9768 32.3145C23.3893 33.1302 24.5581 33.0243 25.4233 32.0779L25.4268 32.0744ZM20.928 37.9045C22.1286 37.9045 22.4394 38.6566 22.4394 39.3275C22.4394 40.0055 22.1286 40.7577 20.928 40.7577H1.14242V42.0431H20.8362C22.4676 42.0431 23.4246 41.3651 23.7 40.1115H30.081C30.3211 40.447 30.7096 40.6659 31.1545 40.6659C31.882 40.6659 32.4787 40.0762 32.4787 39.3452C32.4787 38.6142 31.882 38.0245 31.1545 38.0245C30.7096 38.0245 30.3211 38.2435 30.081 38.5754H23.693C23.4034 37.2265 22.4606 36.6191 20.7868 36.6191H1.13889L1.14242 37.9045H20.9315H20.928Z" fill="black"/>
</svg>
