<svg width="184" height="56" viewBox="0 0 184 56" fill="none" xmlns="http://www.w3.org/2000/svg">
<g clip-path="url(#clip0)">
<path d="M31.2501 8.49005C29.1639 8.48611 27.1234 9.10074 25.3865 10.2563C23.6496 11.4118 22.2943 13.0563 21.4918 14.982C20.6894 16.9076 20.4758 19.028 20.8782 21.075C21.2806 23.1219 22.2809 25.0037 23.7525 26.4823C25.2241 27.961 27.1011 28.9701 29.1462 29.3822C31.1912 29.7942 33.3126 29.5908 35.242 28.7975C37.1714 28.0041 38.8224 26.6566 39.9861 24.9252C41.1499 23.1938 41.7741 21.1562 41.7801 19.0701C41.7853 17.6834 41.5169 16.3093 40.9902 15.0266C40.4635 13.7439 39.6889 12.5777 38.7107 11.5948C37.7325 10.612 36.57 9.83182 35.2898 9.29905C34.0095 8.76628 32.6367 8.49136 31.2501 8.49005V8.49005ZM31.0901 38.0601C28.5685 38.115 26.0626 37.6506 23.7281 36.6958C21.3936 35.741 19.2805 34.3163 17.5201 32.5101C15.7137 30.7137 14.2926 28.5679 13.3435 26.2038C12.3944 23.8396 11.9373 21.3068 12.0001 18.7601C11.9707 16.2763 12.4558 13.8133 13.4247 11.526C14.3936 9.23884 15.8254 7.17692 17.6301 5.47005C19.4148 3.6935 21.5384 2.2938 23.8747 1.35412C26.211 0.414449 28.7123 -0.0460273 31.2301 5.47238e-05C33.7619 -0.0468093 36.2773 0.416942 38.6259 1.36362C40.9746 2.31031 43.1084 3.72051 44.9001 5.51006C46.7029 7.26721 48.1264 9.37527 49.0827 11.7041C50.039 14.0329 50.5078 16.533 50.4601 19.0501C50.5146 21.5752 50.0462 24.0843 49.0842 26.4196C48.1222 28.755 46.6874 30.866 44.8701 32.6201C43.0496 34.3966 40.8934 35.7926 38.5275 36.7266C36.1615 37.6606 33.6332 38.1139 31.0901 38.0601" fill="black"/>
<path d="M152.09 8.49004C150.004 8.48609 147.963 9.10072 146.226 10.2562C144.489 11.4118 143.134 13.0563 142.332 14.982C141.529 16.9076 141.316 19.028 141.718 21.0749C142.12 23.1219 143.121 25.0037 144.592 26.4823C146.064 27.9609 147.941 28.9701 149.986 29.3822C152.031 29.7942 154.152 29.5908 156.082 28.7974C158.011 28.0041 159.662 26.6566 160.826 24.9252C161.99 23.1938 162.614 21.1562 162.62 19.07C162.626 17.683 162.359 16.3084 161.833 15.025C161.307 13.7417 160.532 12.575 159.553 11.5919C158.575 10.6088 157.412 9.82865 156.131 9.29634C154.85 8.76404 153.477 8.49002 152.09 8.49004V8.49004ZM151.93 38.06C149.408 38.1144 146.903 37.6497 144.568 36.695C142.234 35.7402 140.121 34.3158 138.36 32.51C136.563 30.7091 135.151 28.5613 134.211 26.1975C133.271 23.8336 132.821 21.3031 132.89 18.76C132.855 16.2792 133.334 13.8179 134.296 11.5309C135.258 9.24386 136.683 7.18039 138.48 5.47004C142.145 1.94814 147.032 -0.0187988 152.115 -0.0187988C157.198 -0.0187988 162.084 1.94814 165.75 5.47004C167.55 7.22912 168.97 9.33776 169.925 11.6663C170.879 13.9948 171.347 16.4939 171.3 19.01C171.354 21.5352 170.886 24.0443 169.924 26.3796C168.962 28.715 167.527 30.826 165.71 32.58C163.889 34.3565 161.733 35.7525 159.367 36.6866C157.001 37.6206 154.473 38.0739 151.93 38.02" fill="black"/>
<path d="M78.3101 21.4699V1.83994C78.3101 1.60125 78.4049 1.37233 78.5737 1.20355C78.7425 1.03476 78.9714 0.939941 79.2101 0.939941H87.4601C87.6988 0.939941 87.9277 1.03476 88.0965 1.20355C88.2653 1.37233 88.3601 1.60125 88.3601 1.83994V21.4699C88.3614 21.589 88.3391 21.7071 88.2945 21.8174C88.2499 21.9278 88.1838 22.0282 88.1001 22.1128C88.0164 22.1974 87.9167 22.2646 87.8069 22.3105C87.697 22.3563 87.5792 22.3799 87.4601 22.3799H79.2101C79.0911 22.3799 78.9732 22.3563 78.8634 22.3105C78.7535 22.2646 78.6539 22.1974 78.5702 22.1128C78.4865 22.0282 78.4204 21.9278 78.3757 21.8174C78.3311 21.7071 78.3088 21.589 78.3101 21.4699Z" fill="black"/>
<path d="M110.42 8.51013C107.705 8.58586 105.122 9.69881 103.203 11.6202C101.283 13.5415 100.173 16.1252 100.1 18.8401C100.073 20.2388 100.326 21.6288 100.842 22.9289C101.359 24.229 102.13 25.4131 103.109 26.412C104.088 27.411 105.257 28.2047 106.547 28.747C107.836 29.2892 109.221 29.569 110.62 29.5701H110.82C113.535 29.497 116.119 28.3866 118.04 26.4671C119.961 24.5476 121.074 21.965 121.15 19.2501C121.178 17.8497 120.926 16.4578 120.409 15.1559C119.893 13.8541 119.122 12.6683 118.141 11.6682C117.16 10.668 115.99 9.87355 114.699 9.33128C113.407 8.78901 112.021 8.50985 110.62 8.51013H110.42ZM112.23 55.9101C107.93 56.0687 103.715 54.6815 100.35 52.0001C98.7207 50.6149 97.3858 48.9171 96.4239 47.0072C95.4621 45.0972 94.8929 43.0138 94.7499 40.8801V40.6001C94.7414 40.5222 94.7495 40.4433 94.774 40.3688C94.7984 40.2942 94.8384 40.2258 94.8915 40.168C94.9445 40.1102 95.0093 40.0645 95.0815 40.0338C95.1536 40.0031 95.2315 39.9882 95.3099 39.9901H103.79C103.921 39.9884 104.049 40.0338 104.15 40.1182C104.251 40.2026 104.318 40.3203 104.34 40.4501V40.6501C104.509 41.9346 104.978 43.1611 105.71 44.2301C106.488 45.2129 107.494 45.9915 108.64 46.4985C109.787 47.0055 111.039 47.2257 112.29 47.1401C117.64 47.1401 120.29 43.8901 120.29 37.2201V36.5501C120.29 36.4548 120.265 36.3611 120.219 36.2779C120.172 36.1947 120.105 36.1248 120.024 36.0747C119.943 36.0246 119.85 35.9961 119.755 35.9918C119.66 35.9875 119.565 36.0076 119.48 36.0501C116.677 37.4086 113.595 38.0935 110.48 38.0501C107.958 38.1044 105.453 37.6398 103.118 36.6851C100.784 35.7303 98.6707 34.3058 96.9099 32.5001C95.1121 30.6999 93.6999 28.5523 92.7594 26.1882C91.819 23.8242 91.37 21.2934 91.4399 18.7501C91.403 16.2731 91.8777 13.8151 92.8344 11.53C93.7911 9.24495 95.2092 7.18193 96.9999 5.47013C98.7839 3.69264 100.907 2.29234 103.244 1.3526C105.58 0.412858 108.082 -0.0470953 110.6 0.00012647C113.663 -0.0352559 116.691 0.649839 119.44 2.00013C119.524 2.04233 119.618 2.06245 119.713 2.05862C119.807 2.05479 119.899 2.02714 119.98 1.97823C120.061 1.92932 120.128 1.86075 120.175 1.77891C120.222 1.69706 120.248 1.6046 120.25 1.51013C120.262 1.37214 120.325 1.24364 120.427 1.14944C120.529 1.05525 120.661 1.00205 120.8 1.00013H129.27C129.418 1.00013 129.561 1.05913 129.666 1.16415C129.771 1.26917 129.83 1.41161 129.83 1.56013V35.4501C129.83 37.0901 129.77 38.5601 129.67 39.8201C129.576 40.9474 129.422 42.069 129.21 43.1801C128.667 45.8043 127.454 48.2433 125.69 50.2601C122.44 54.0001 117.91 55.9101 112.23 55.9101" fill="black"/>
<path d="M83.28 37.25C82.0933 37.25 80.9333 36.8981 79.9466 36.2388C78.9599 35.5795 78.1909 34.6425 77.7368 33.5461C77.2826 32.4497 77.1638 31.2433 77.3953 30.0795C77.6268 28.9156 78.1983 27.8465 79.0374 27.0074C79.8765 26.1682 80.9456 25.5968 82.1095 25.3653C83.2734 25.1338 84.4798 25.2526 85.5761 25.7067C86.6725 26.1609 87.6096 26.9299 88.2688 27.9166C88.9281 28.9033 89.28 30.0633 89.28 31.25C89.28 32.8413 88.6479 34.3674 87.5227 35.4926C86.3975 36.6179 84.8713 37.25 83.28 37.25Z" fill="black"/>
<path d="M177.32 37.25C176.133 37.25 174.973 36.8981 173.987 36.2388C173 35.5795 172.231 34.6425 171.777 33.5461C171.323 32.4497 171.204 31.2433 171.435 30.0795C171.667 28.9156 172.238 27.8465 173.077 27.0074C173.917 26.1682 174.986 25.5968 176.15 25.3653C177.313 25.1338 178.52 25.2526 179.616 25.7067C180.713 26.1609 181.65 26.9299 182.309 27.9166C182.968 28.9033 183.32 30.0633 183.32 31.25C183.32 32.8413 182.688 34.3674 181.563 35.4926C180.437 36.6179 178.911 37.25 177.32 37.25Z" fill="black"/>
<path d="M6 37.25C4.81331 37.25 3.65328 36.8981 2.66658 36.2388C1.67989 35.5795 0.910851 34.6425 0.456726 33.5461C0.00259972 32.4497 -0.11622 31.2433 0.115291 30.0795C0.346802 28.9156 0.918247 27.8465 1.75736 27.0074C2.59648 26.1682 3.66558 25.5968 4.82946 25.3653C5.99335 25.1338 7.19975 25.2526 8.2961 25.7067C9.39246 26.1609 10.3295 26.9299 10.9888 27.9166C11.6481 28.9033 12 30.0633 12 31.25C12 32.8413 11.3679 34.3674 10.2426 35.4926C9.11743 36.6179 7.5913 37.25 6 37.25Z" fill="black"/>
<path d="M63.1201 2.44992C63.1183 2.54491 63.1412 2.63873 63.1865 2.72224C63.2318 2.80576 63.2979 2.87612 63.3785 2.92647C63.4591 2.97682 63.5513 3.00545 63.6462 3.00956C63.7411 3.01367 63.8355 2.99312 63.9201 2.94992C66.6676 1.59499 69.6969 0.909639 72.7601 0.94992C73.3001 0.94992 73.8901 0.94992 74.5301 1.01992C74.7326 1.03748 74.921 1.13051 75.0581 1.28056C75.1952 1.4306 75.2708 1.62669 75.2701 1.82992V8.82992C75.2699 8.94635 75.2447 9.06137 75.1961 9.16715C75.1474 9.27294 75.0766 9.367 74.9883 9.44292C74.9001 9.51885 74.7965 9.57485 74.6846 9.60712C74.5727 9.63939 74.4552 9.64717 74.3401 9.62992C73.8772 9.55285 73.4093 9.5094 72.9401 9.49992H72.5201C69.9875 9.59337 67.5906 10.6682 65.8364 12.4972C64.0821 14.3261 63.108 16.7657 63.1201 19.2999V36.3299C63.1201 36.5447 63.0347 36.7508 62.8828 36.9027C62.7309 37.0546 62.5249 37.1399 62.3101 37.1399H54.3101C54.0953 37.1399 53.8892 37.0546 53.7373 36.9027C53.5854 36.7508 53.5001 36.5447 53.5001 36.3299V1.83992C53.4959 1.72848 53.5147 1.61737 53.5555 1.51355C53.5962 1.40973 53.6579 1.31544 53.7368 1.23659C53.8156 1.15773 53.9099 1.09601 54.0137 1.05528C54.1175 1.01456 54.2286 0.995711 54.3401 0.99992H62.5601C62.7086 0.99992 62.851 1.05892 62.9561 1.16394C63.0611 1.26896 63.1201 1.4114 63.1201 1.55992V2.44992Z" fill="black"/>
</g>
<defs>
<clipPath >
<rect width="183.34" height="55.91" fill="white"/>
</clipPath>
</defs>
</svg>
