<svg width="132" height="101" viewBox="0 0 132 101" fill="none" xmlns="http://www.w3.org/2000/svg">
<path fill-rule="evenodd" clip-rule="evenodd" d="M36.1535 34.9815L38.904 32.5797C39.5478 31.9812 40.1812 31.5702 40.8048 31.3474C41.4273 31.1251 42.1796 31.0134 43.0615 31.0134C44.6156 31.0134 45.9626 31.3236 47.104 31.9427C48.2449 32.5624 49.0359 33.3561 49.4769 34.3233C49.9173 35.2916 50.1381 36.9381 50.1381 39.2629L50.0121 45.4445C50.0121 46.8373 50.0677 47.9373 50.18 48.7446C50.222 49.0786 50.3376 49.329 50.5267 49.496C50.7153 49.6635 51.1252 49.7752 51.7548 49.8305L53.3509 49.997V51.2087C51.9925 51.1116 50.6701 51.0623 49.382 51.0623C48.276 51.0623 47.1776 51.1116 46.0858 51.2087C46.3376 47.714 46.4635 44.2751 46.4635 40.892C46.4635 38.6226 46.3196 37.0839 46.0329 36.2761C45.7462 35.4689 45.2316 34.8286 44.4897 34.3547C43.7478 33.882 42.8097 33.6451 41.6759 33.6451C40.5137 33.6451 39.4568 33.9199 38.505 34.4697C37.5533 35.02 36.8953 35.657 36.5312 36.3808C36.2794 36.8958 36.1535 38.1216 36.1535 40.0566V43.6901C36.1535 47.0043 36.2303 48.8351 36.3846 49.1832C36.5383 49.5313 37.0981 49.747 38.064 49.8305L39.8912 49.997V51.2087C37.707 51.1116 35.9501 51.0623 34.6206 51.0623C33.2344 51.0623 31.4214 51.1116 29.1821 51.2087V49.997L30.5051 49.8305C31.3304 49.7329 31.8488 49.6185 32.0586 49.4863C32.269 49.3545 32.4086 49.0514 32.4789 48.5781C32.5765 47.8273 32.6255 46.1439 32.6255 43.528V29.4417C32.6255 25.7274 32.5274 23.6472 32.3317 23.2021C32.2058 22.8963 31.6389 22.7429 30.631 22.7429H29.1821V21.4694C31.3516 21.2465 33.0878 20.9337 34.3895 20.5293L36.1115 19.9448C36.335 19.9448 36.4473 20.0907 36.4473 20.3823L36.3846 21.2373L36.2587 24.9917C36.1883 26.8828 36.1535 28.3493 36.1535 29.3924V34.9815Z" fill="black"/>
<path fill-rule="evenodd" clip-rule="evenodd" d="M71.1996 51.2085L71.4307 47.4498L70.1928 48.7862C69.2291 49.8304 68.2473 50.565 67.2476 50.9895C66.2484 51.4145 65.0149 51.6265 63.5469 51.6265C62.2893 51.6265 61.2057 51.3614 60.297 50.8328C59.3889 50.3037 58.7282 49.6184 58.3161 48.7759C57.9034 47.9334 57.6974 46.6007 57.6974 44.7764C57.6974 43.8298 57.7187 42.7298 57.7606 41.4768L57.8233 38.1144C57.8233 35.7615 57.7568 34.4527 57.6238 34.1881C57.4908 33.9236 57.0465 33.7913 56.2905 33.7913H54.4219V32.6424C56.3308 32.4755 58.0931 32.1274 59.7072 31.5983L61.4553 30.9509C61.6941 30.9509 61.8129 31.125 61.8129 31.473L61.6663 33.6031C61.4701 36.5552 61.3725 39.2979 61.3725 41.832C61.3725 44.366 61.4766 45.9843 61.6865 46.6875C61.8958 47.3907 62.3357 47.9756 63.0062 48.4414C63.6772 48.9082 64.4943 49.1413 65.458 49.1413C66.7576 49.1413 67.9481 48.7233 69.0306 47.8884C70.1132 47.0529 70.8224 46.2104 71.1576 45.3614C71.3391 44.874 71.4307 43.4053 71.4307 40.9548C71.4307 36.8333 71.3533 34.592 71.1996 34.2299C71.0595 33.9377 70.4288 33.7913 69.3097 33.7913H67.6504V32.6424C69.0922 32.4755 70.3171 32.2808 71.3255 32.058C72.3334 31.8352 73.3969 31.5012 74.5171 31.055C74.6566 30.9856 74.7831 30.9509 74.8949 30.9509C75.1325 30.9509 75.2519 31.0832 75.2519 31.3478L75.168 33.2898C74.9581 38.0515 74.8529 42.2424 74.8529 45.8623C74.8529 47.8954 74.9581 49.0578 75.168 49.35C75.4759 49.7821 76.141 49.9973 77.163 49.9973H78.3808V51.2085C76.6305 51.1115 75.1472 51.0627 73.9295 51.0627C73.0186 51.0627 72.1088 51.1115 71.1996 51.2085Z" fill="black"/>
<path fill-rule="evenodd" clip-rule="evenodd" d="M95.1165 38.199C95.1165 36.4522 94.6673 35.048 93.769 33.9854C92.8712 32.9227 91.7418 32.392 90.3812 32.392C89.0337 32.392 87.95 32.8252 87.1291 33.6921C86.3082 34.5584 85.8983 35.7604 85.8983 37.2974C85.8983 39.157 86.3431 40.6137 87.2343 41.6688C88.1256 42.7243 89.2447 43.2519 90.5916 43.2519C91.9386 43.2519 93.0293 42.8084 93.8639 41.9203C94.699 41.0328 95.1165 39.7929 95.1165 38.199ZM89.3766 51.5007C88.3845 51.5007 87.7064 51.6124 87.3428 51.8363C86.1681 52.5888 85.4557 53.196 85.2044 53.6569C84.7852 54.3817 84.5753 55.2958 84.5753 56.398C84.5753 57.9188 85.1411 59.1744 86.2733 60.1649C87.406 61.1554 88.9781 61.6509 90.9912 61.6509C92.5425 61.6509 93.9053 61.3647 95.08 60.7927C96.2541 60.2202 97.1661 59.4362 97.8159 58.4387C98.4662 57.4406 98.791 56.4121 98.791 55.3517C98.791 54.4446 98.5637 53.6498 98.1097 52.9667C97.6551 52.2825 97.1132 51.8428 96.4842 51.6471C96.1631 51.5495 95.4289 51.5007 94.283 51.5007H89.3766ZM98.2874 34.8978C98.609 35.7907 98.7698 36.5237 98.7698 37.0957C98.7698 38.3378 98.3915 39.5338 97.6354 40.6853C96.8788 41.8363 95.8001 42.7639 94.3997 43.4687C92.9988 44.1735 91.4861 44.5259 89.8612 44.5259L88.874 44.5048C87.9522 45.1836 87.3695 45.6894 87.1253 46.0217C86.8811 46.3541 86.7595 46.6799 86.7595 46.9987C86.7595 47.5251 87.0321 47.9404 87.5783 48.2451C88.1239 48.5498 89.237 48.7027 90.917 48.7027C91.5603 48.7027 92.4848 48.6794 93.6883 48.6322C95.4103 48.5536 96.6564 48.5145 97.4261 48.5145C98.5316 48.5145 99.3787 48.6924 99.9668 49.048C100.555 49.4037 101.059 50.0244 101.479 50.9092C101.899 51.7946 102.109 52.7949 102.109 53.9106C102.109 55.472 101.633 56.9673 100.681 58.3969C99.7286 59.8255 98.343 60.9722 96.5234 61.8374C94.7033 62.7016 92.6101 63.1337 90.2449 63.1337C87.3608 63.1337 85.1422 62.5103 83.5887 61.2644C82.0346 60.0185 81.2578 58.4837 81.2578 56.6599C81.2578 55.5322 81.6628 54.3899 82.4745 53.2345C83.9299 52.5525 85.1548 51.8629 86.1479 51.1668C85.001 50.7927 84.263 50.449 83.9343 50.1367C83.6056 49.8238 83.4415 49.4254 83.4415 48.9391C83.4415 48.3562 83.6023 47.7805 83.9245 47.2112C84.106 46.8642 84.5671 46.4413 85.3085 45.9415L87.3428 44.5048C85.6644 44.0862 84.4543 43.4937 83.7135 42.7271C82.734 41.6953 82.2444 40.3774 82.2444 38.7737C82.2444 37.3651 82.6086 36.0824 83.3363 34.9249C84.064 33.768 85.1351 32.8544 86.5491 32.1849C88.3551 31.3342 90.0977 30.9092 91.7778 30.9092C92.8413 30.9092 93.7761 31.0485 94.5807 31.3266C95.3858 31.6053 96.2084 32.0786 97.0478 32.7471H98.8118C100.632 32.7471 102.046 32.6842 103.054 32.559L103.285 33.0014C102.865 33.6053 102.493 34.238 102.172 34.8978H98.2874Z" fill="black"/>
<path fill-rule="evenodd" clip-rule="evenodd" d="M29.9093 72.5422V73.2237C29.9093 73.7697 29.9584 74.108 30.0565 74.2408C30.2386 74.4647 30.5934 74.6816 31.1222 74.8914C31.6509 75.1006 32.195 75.2058 32.7553 75.2058C33.4765 75.2058 34.0647 75.0123 34.5198 74.6252C34.9744 74.2381 35.2023 73.7762 35.2023 73.2394C35.2023 72.8144 35.0693 72.4734 34.8033 72.2148C34.5367 71.9572 34.0292 71.7518 33.2803 71.5978C31.887 71.3191 30.9663 71.0751 30.5182 70.8659C30.0701 70.6571 29.7344 70.3785 29.5103 70.0293C29.2863 69.6813 29.1745 69.26 29.1745 68.7645C29.1745 67.8374 29.5125 67.0849 30.189 66.5064C30.866 65.9274 31.8248 65.6384 33.0655 65.6384C34.0472 65.6384 35.0257 65.8336 36.0003 66.2234C35.9398 66.6967 35.8908 67.4904 35.8531 68.6046H35.223C35.2094 67.9919 35.1429 67.5886 35.024 67.3934C34.8632 67.1353 34.57 66.9022 34.1437 66.6935C33.718 66.4842 33.2639 66.3796 32.782 66.3796C32.1464 66.3796 31.6384 66.5422 31.2574 66.8664C30.8769 67.1901 30.6867 67.5967 30.6867 68.0841C30.6867 68.5514 30.8366 68.9033 31.138 69.1407C31.4389 69.3847 32.2724 69.6428 33.6373 69.9149C34.6457 70.1166 35.3108 70.3047 35.6329 70.4788C35.9545 70.6528 36.214 70.9168 36.4097 71.2719C36.6059 71.6265 36.704 72.0337 36.704 72.4929C36.704 73.4324 36.2996 74.2424 35.4912 74.925C34.6823 75.6065 33.6024 75.9469 32.2511 75.9469C31.3904 75.9469 30.4239 75.8136 29.3528 75.5457C29.1636 75.498 29.0693 75.4249 29.0693 75.3273L29.101 75.1809C29.1288 75.0762 29.1533 74.8908 29.1745 74.6252C29.2372 73.9486 29.2688 73.4216 29.2688 73.0448L29.2585 72.5422H29.9093Z" fill="black"/>
<path fill-rule="evenodd" clip-rule="evenodd" d="M41.4718 67.509L42.8792 66.255C43.1033 66.0533 43.3409 65.9101 43.5933 65.8267C43.9575 65.7009 44.3178 65.6385 44.6748 65.6385C45.4658 65.6385 46.1014 65.7795 46.581 66.0614C47.0602 66.3439 47.4995 66.8508 47.8991 67.5816L49.2559 66.3493C49.487 66.14 49.771 65.9801 50.1079 65.8684C50.5494 65.715 50.9773 65.6385 51.391 65.6385C52.0223 65.6385 52.5935 65.7849 53.1054 66.0777C53.6172 66.3704 53.9977 66.7505 54.2463 67.2178C54.4954 67.6846 54.6197 68.3189 54.6197 69.1202L54.5782 73.2086C54.5782 74.1222 54.6306 74.6605 54.7363 74.8242C54.8421 74.988 55.113 75.0807 55.5502 75.1018L56.3209 75.1327V75.7389L55.8145 75.7145C54.9974 75.6819 54.4447 75.6657 54.1563 75.6657C53.7126 75.6657 53.1953 75.6895 52.6039 75.7389C52.7015 74.4507 52.7505 72.9446 52.7505 71.2205C52.7505 69.7632 52.6878 68.8063 52.5619 68.3488C52.4365 67.8912 52.1951 67.5323 51.8391 67.272C51.4826 67.0118 51.0356 66.8817 50.4982 66.8817C49.8904 66.8817 49.3698 67.0449 48.9364 67.3729C48.5031 67.7003 48.2343 68.0929 48.1297 68.5504C48.0599 68.8399 48.025 70.0788 48.025 72.2691C48.025 73.5589 48.0354 74.2929 48.0561 74.4724C48.0773 74.6524 48.1351 74.7792 48.23 74.853C48.3243 74.9267 48.6268 74.9923 49.1381 75.0482L49.8418 75.1327V75.7389C48.6028 75.6895 47.692 75.6657 47.1114 75.6657C46.6492 75.6657 45.753 75.6895 44.423 75.7389V75.1327H45.1267C45.5464 75.1327 45.8195 75.0736 45.9455 74.9549C46.0714 74.8362 46.145 74.5575 46.1662 74.1184C46.2224 72.9755 46.2502 71.7828 46.2502 70.5418C46.2502 69.4336 46.1749 68.6681 46.0245 68.2457C45.874 67.8245 45.6184 67.4916 45.2575 67.2476C44.8972 67.0031 44.465 66.8817 43.9607 66.8817C43.4216 66.8817 42.9316 67.0313 42.4906 67.3311C42.0496 67.6309 41.7487 67.9931 41.5874 68.4187C41.4827 68.7115 41.4298 69.5415 41.4298 70.9077C41.4298 72.4073 41.444 73.5084 41.4718 74.2127C41.486 74.5402 41.5383 74.7494 41.6293 74.84C41.7204 74.931 42.0213 75.0004 42.5326 75.0492L43.257 75.1327V75.7389C42.3821 75.6895 41.5557 75.6657 40.779 75.6657C39.8964 75.6657 38.9376 75.6895 37.9014 75.7389V75.1327H38.6994C39.1546 75.1327 39.4277 75.0124 39.5187 74.7717C39.6097 74.5309 39.655 73.22 39.655 70.8394C39.655 69.0942 39.6446 68.0641 39.6239 67.7502C39.6026 67.4363 39.5432 67.2373 39.4451 67.1528C39.347 67.0698 39.0494 67.0275 38.5528 67.0275H37.9014V66.4528C38.9305 66.3141 39.8163 66.1227 40.5582 65.8787L41.3252 65.5859C41.4511 65.5859 41.5138 65.6705 41.5138 65.8386L41.4931 66.2165C41.4718 66.6019 41.4647 67.0324 41.4718 67.509Z" fill="black"/>
<path fill-rule="evenodd" clip-rule="evenodd" d="M59.5557 60.9695C59.8778 60.9695 60.1542 61.0866 60.3853 61.3197C60.6164 61.5523 60.732 61.8331 60.732 62.1601C60.732 62.4875 60.6164 62.7662 60.3853 62.9961C60.1542 63.2259 59.8778 63.3403 59.5557 63.3403C59.2264 63.3403 58.9468 63.2259 58.7157 62.9961C58.4845 62.7662 58.369 62.4875 58.369 62.1601C58.369 61.8331 58.4845 61.5523 58.7157 61.3197C58.9468 61.0866 59.2264 60.9695 59.5557 60.9695ZM60.3957 65.5962L60.6481 65.7534C60.599 66.2755 60.5674 66.8502 60.5538 67.4764C60.5042 69.51 60.4802 71.0102 60.4802 71.9785C60.4802 72.8833 60.5112 73.6564 60.5745 74.2973C60.6023 74.5477 60.6688 74.7218 60.774 74.8193C60.8792 74.9169 61.131 74.9901 61.53 75.0389L62.2441 75.1327V75.7388C61.2221 75.6895 60.291 75.6656 59.4505 75.6656C58.6246 75.6656 57.7912 75.6895 56.9512 75.7388V75.1327L57.8544 75.0389C58.2044 75.0107 58.4197 74.9462 58.5004 74.8448C58.5805 74.7434 58.6317 74.4068 58.6524 73.8343C58.6879 72.9473 58.7053 71.7258 58.7053 70.1693C58.7053 69.0872 58.6879 68.2528 58.6524 67.6656C58.6383 67.4498 58.5772 67.2964 58.4687 67.2053C58.3603 67.1148 58.1171 67.0693 57.7388 67.0693H56.9512V66.4637C57.8053 66.3395 58.4339 66.2262 58.8367 66.1227C59.239 66.0196 59.759 65.844 60.3957 65.5962Z" fill="black"/>
<path fill-rule="evenodd" clip-rule="evenodd" d="M65.3835 69.8935C65.3835 71.0163 65.5443 71.9954 65.8665 72.8325C66.1887 73.6685 66.6051 74.273 67.1164 74.6465C67.6272 75.019 68.205 75.206 68.8493 75.206C69.7106 75.206 70.4029 74.8726 70.9283 74.2074C71.4533 73.5416 71.716 72.5148 71.716 71.128C71.716 69.6143 71.3889 68.4448 70.7343 67.6191C70.0796 66.7929 69.2587 66.3798 68.272 66.3798C67.4102 66.3798 66.7136 66.6818 66.1816 67.2846C65.6496 67.8881 65.3835 68.7571 65.3835 69.8935ZM67.9733 62.2047L65.7618 63.4343L65.0788 62.8699L67.1753 61.6912C66.3266 61.2282 65.365 60.9062 64.2917 60.7235L64.5861 60.0398C65.2593 60.1304 65.8502 60.2513 66.3587 60.4014C66.8673 60.5516 67.4724 60.794 68.1745 61.129L70.5637 59.7839L71.2641 60.3743L69.0733 61.5926C70.5637 62.511 71.7056 63.6874 72.4993 65.1214C73.2935 66.5549 73.6904 68.1624 73.6904 69.9444C73.6904 71.7542 73.1807 73.2071 72.1624 74.3028C71.1436 75.3996 69.861 75.9472 68.3135 75.9472C66.8575 75.9472 65.6757 75.4809 64.7692 74.5479C63.8627 73.6148 63.4092 72.3787 63.4092 70.8395C63.4092 69.816 63.6141 68.9198 64.0235 68.1505C64.4334 67.3806 65.0216 66.7701 65.788 66.3174C66.5544 65.8647 67.3617 65.6387 68.2088 65.6387C68.755 65.6387 69.262 65.7357 69.7318 65.9309C70.2006 66.1261 70.6765 66.4573 71.16 66.9236C70.556 64.9284 69.4947 63.3556 67.9733 62.2047Z" fill="black"/>
<path fill-rule="evenodd" clip-rule="evenodd" d="M76.9043 60.9587C77.2336 60.9587 77.5138 61.0758 77.7443 61.309C77.976 61.5421 78.0916 61.8219 78.0916 62.1493C78.0916 62.4773 77.976 62.7554 77.7443 62.9853C77.5138 63.2152 77.2336 63.3301 76.9043 63.3301C76.5756 63.3301 76.2938 63.2152 76.0589 62.9853C75.8245 62.7554 75.7073 62.4773 75.7073 62.1493C75.7073 61.8219 75.8245 61.5421 76.0589 61.309C76.2938 61.0758 76.5756 60.9587 76.9043 60.9587ZM74.3631 67.0585V66.4529C75.3339 66.3483 76.206 66.1678 76.9812 65.9102L77.903 65.586C78.0142 65.586 78.0703 65.656 78.0703 65.7948L78.049 66.0035C78.0349 66.1222 78.0071 66.6308 77.9651 67.5286C77.8811 69.36 77.8392 70.8883 77.8392 72.1141L77.8599 74.7983C77.8599 76.6438 77.7007 78.01 77.3824 78.8975C77.064 79.7856 76.5914 80.473 75.9646 80.961C75.3382 81.4484 74.7027 81.6918 74.0583 81.6918L73.7329 81.6815L73.5127 80.9501C73.7433 80.9919 73.9221 81.013 74.048 81.013C74.3838 81.013 74.6607 80.9366 74.8776 80.7837C75.2069 80.5403 75.4642 80.1711 75.6495 79.6772C75.8348 79.1832 75.9542 78.0697 76.0065 76.3375C76.0589 74.6048 76.0856 72.7473 76.0856 70.7641C76.0856 68.6768 76.0469 67.5372 75.9706 67.3459C75.8937 67.1545 75.6086 67.0585 75.1148 67.0585H74.3631Z" fill="black"/>
<path fill-rule="evenodd" clip-rule="evenodd" d="M86.4823 70.1402C84.5357 70.5571 83.3 70.948 82.775 71.3123C82.2495 71.6772 81.9873 72.2421 81.9873 73.006C81.9873 73.52 82.1378 73.9315 82.4387 74.241C82.7396 74.5495 83.1288 74.7046 83.6047 74.7046C84.1296 74.7046 84.6322 74.5587 85.1119 74.2671C85.591 73.9748 86.0478 73.5411 86.4823 72.9643L86.461 70.6503L86.4823 70.1402ZM80.9478 68.4796L80.9582 67.7796L80.9478 67.0591L82.0925 66.4112C82.6104 66.1185 83.0639 65.9168 83.452 65.8057C83.8407 65.694 84.2555 65.6387 84.697 65.6387C85.663 65.6387 86.4414 65.8539 87.0334 66.2855C87.6248 66.7165 87.9802 67.2662 88.0996 67.9336C88.1835 68.4346 88.2359 69.6761 88.2566 71.6587C88.2707 73.5292 88.3127 74.5625 88.383 74.7572C88.4528 74.9518 88.6278 75.0488 88.908 75.0488H89.7267V75.739C88.9292 75.6897 88.3721 75.6658 88.0571 75.6658C87.6651 75.6658 87.1397 75.6897 86.4823 75.739L86.4926 74.8097C86.4926 74.5105 86.4893 74.208 86.4823 73.9022L84.3084 75.5509C84.1122 75.6973 83.9197 75.7997 83.7306 75.8588C83.5414 75.9179 83.2792 75.9472 82.9429 75.9472C82.0397 75.9472 81.3501 75.7271 80.8742 75.2852C80.3978 74.8439 80.1602 74.2513 80.1602 73.5075C80.1602 72.8049 80.3297 72.1917 80.6693 71.6669C81.0089 71.1421 81.4918 70.7544 82.1187 70.504C82.745 70.2535 84.1999 69.9271 86.4823 69.5237C86.4681 68.6395 86.2719 67.9781 85.8941 67.5389C85.4177 66.9897 84.739 66.7138 83.8565 66.7138C83.5207 66.7138 83.2056 66.755 82.9113 66.8368C82.6175 66.9192 82.3444 67.0412 82.0925 67.205C81.8892 67.7032 81.7039 68.1797 81.5355 68.6362L80.9478 68.4796Z" fill="black"/>
<path fill-rule="evenodd" clip-rule="evenodd" d="M93.9904 67.6334L95.5783 66.2335C95.7674 66.0665 95.9675 65.9451 96.1779 65.8681C96.6407 65.7147 97.1034 65.6382 97.5662 65.6382C98.3163 65.6382 98.965 65.7895 99.5117 66.0926C100.058 66.3956 100.451 66.7887 100.69 67.2728C100.928 67.7564 101.047 68.5144 101.047 69.5444L101.005 72.8348C101.005 73.9701 101.054 74.6244 101.151 74.7985C101.284 75.0218 101.541 75.1324 101.924 75.1324H102.675V75.7386C101.928 75.6892 101.282 75.6654 100.738 75.6654C100.207 75.6654 99.6382 75.6892 99.0309 75.7386C99.1639 74.3805 99.231 72.5458 99.231 70.2341C99.231 69.301 99.1481 68.6396 98.983 68.2492C98.8183 67.8594 98.5414 67.5461 98.1517 67.3091C97.7625 67.0728 97.2942 66.9546 96.747 66.9546C96.0667 66.9546 95.4894 67.1248 95.0163 67.4658C94.5426 67.8074 94.2493 68.1831 94.1375 68.5941C94.0672 68.8657 94.0323 69.5759 94.0323 70.7247C94.0323 71.9993 94.0427 73.1828 94.064 74.2758C94.071 74.6033 94.1201 74.8088 94.2117 74.8923C94.3883 75.0527 94.6767 75.1324 95.0784 75.1324H95.8285V75.7386C94.6423 75.6892 93.6993 75.6654 92.9972 75.6654C92.2537 75.6654 91.4088 75.6892 90.4619 75.7386V75.1324H91.218C91.7358 75.1324 92.0389 75.0126 92.1267 74.773C92.2139 74.5328 92.2575 73.088 92.2575 70.4385C92.2575 69.2495 92.2439 68.317 92.2155 67.6426C92.2013 67.4203 92.1452 67.2674 92.0471 67.1839C91.9495 67.1004 91.6726 67.0587 91.218 67.0587H90.4619V66.4525C91.0621 66.3831 91.5995 66.2894 92.0743 66.1712C92.5491 66.0524 93.0828 65.8719 93.6758 65.6274C93.7391 65.6003 93.7985 65.5862 93.8541 65.5862C93.9658 65.5862 94.0214 65.6659 94.0214 65.8264L94.0111 66.2232L93.9904 67.6334Z" fill="black"/>
<path d="M130 2H2V99H130V2Z" stroke="#15202D" stroke-width="3"/>
</svg>
