<svg width="169" height="46" viewBox="0 0 169 46" fill="none" xmlns="http://www.w3.org/2000/svg">
<g clip-path="url(#clip0)">
<path d="M31.2158 1.56641H45.1293C51.6865 1.56641 55.158 4.45171 55.158 9.2056C55.158 12.0634 53.6151 14.3167 51.8793 15.3884C49.7579 16.7074 47.2232 16.9547 43.9446 16.9547C42.5119 16.9547 41.1343 16.8723 39.7016 16.8723V25.6381C39.7016 27.1769 40.3629 27.5891 41.8506 27.5891H44.165V29.3203H31.2158V27.5891H33.3373C34.8526 27.5891 35.4863 27.1769 35.4863 25.6381V5.24861C35.4863 3.70978 34.8251 3.29759 33.3373 3.29759H31.2158V1.56641ZM39.7016 15.1686C40.9414 15.196 42.5119 15.251 44.5231 15.251C46.066 15.251 47.5813 14.9762 48.3528 14.3991C49.9783 13.2175 50.5569 11.0192 50.5569 9.17812C50.5569 7.08971 49.8681 4.45171 47.8568 3.79222C46.5344 3.38003 45.7629 3.29759 43.9721 3.29759C39.8394 3.29759 39.7292 3.51742 39.7292 5.82567V15.1686H39.7016Z" fill="black"/>
<path d="M69.8151 29.8973C61.7977 29.8973 56.5078 22.8626 56.5078 15.4433C56.5078 9.72761 60.7783 0.989258 69.7325 0.989258C77.7499 0.989258 83.0398 8.0239 83.0398 15.4433C83.0398 21.1589 78.7693 29.8973 69.8151 29.8973ZM69.7325 2.72044C62.762 2.72044 61.4395 9.865 61.4395 15.4433C61.4395 19.3178 61.8528 28.1661 69.8151 28.1661C76.7856 28.1661 78.1081 21.0215 78.1081 15.4433C78.1081 11.5687 77.6948 2.72044 69.7325 2.72044Z" fill="black"/>
<path d="M90.1757 27.5891H92.6829C94.1982 27.5891 94.8319 27.1769 94.8319 25.6381V5.60584C94.8319 3.87465 94.4462 3.29759 92.986 3.29759C89.0186 3.29759 87.2553 6.45769 86.3461 12.2833H84.8032L85.4093 1.56641H108.415L109.021 12.2833H107.478C106.596 6.43021 104.805 3.29759 100.838 3.29759C99.3779 3.29759 98.9922 3.87465 98.9922 5.60584V25.6381C98.9922 27.1769 99.6534 27.5891 101.141 27.5891H103.648V29.3203H90.1206V27.5891H90.1757Z" fill="black"/>
<path d="M112.051 1.56641H135.332L135.883 11.4864H134.34C132.908 3.65482 130.979 3.29759 123.402 3.29759C121.088 3.29759 120.537 3.46246 120.537 4.80894V13.987H121.915C125.276 13.987 126.819 12.5306 127.039 8.71097H128.775V21.3239H127.039C127.039 17.889 125.662 15.7181 122.631 15.7181H120.51V26.1052C120.51 27.4517 121.061 27.6166 123.375 27.6166C132.357 27.6166 132.908 26.8197 134.946 19.0706H136.489L135.745 29.3478H112.051V27.6166H114.173C115.688 27.6166 116.322 27.2044 116.322 25.6656V5.27608C116.322 3.73725 115.661 3.32507 114.173 3.32507H112.051V1.56641Z" fill="black"/>
<path d="M155.583 1.56641H167.457V3.29759C164.537 3.40751 162.608 4.67155 160.569 6.67752L155.087 12.0909L164.427 25.5557C165.363 26.9021 165.997 27.3693 166.631 27.4517C167.209 27.5342 168.201 27.6166 169.028 27.6166V29.3478H155.913V27.6166H158.062C159.247 27.6166 159.881 27.5067 159.881 26.8747C159.881 26.2976 159.385 25.5557 158.916 24.8687L152.166 15.1136L147.648 19.7576V25.6381C147.648 27.1769 148.309 27.5891 149.797 27.5891H151.918V29.3203H139.162V27.5891H141.284C142.799 27.5891 143.433 27.1769 143.433 25.6381V5.24861C143.433 3.70978 142.771 3.29759 141.284 3.29759H139.162V1.56641H151.918V3.29759H149.797C148.282 3.29759 147.648 3.70978 147.648 5.24861V16.9822L157.814 6.75996C158.476 6.10046 159.082 5.13869 159.082 4.47919C159.082 3.70978 158.393 3.29759 156.299 3.29759H155.583V1.56641Z" fill="black"/>
<path d="M29.3989 27.589H29.1509H28.0213C27.608 27.589 27.2499 27.589 26.9192 27.5615C25.707 27.4791 25.1559 27.0119 25.1559 25.6105V5.77061C25.2111 4.12186 25.3213 2.55556 25.4315 1.34648C25.4866 1.09917 25.4039 0.851854 25.1835 0.714458C24.908 0.522104 24.5223 0.577063 24.3294 0.851854L23.1447 2.44564C20.2518 0.796896 17.3589 0.109918 14.6313 0.0274808C14.5487 0.0274808 14.466 0 14.3834 0C14.2732 0 14.1905 0 14.0803 0C14.0252 0 13.9701 0 13.915 0C6.7792 0.0274791 2.15057 3.84707 2.17812 9.2055C2.17812 11.0466 3.28018 13.9594 5.48429 15.8829C6.11797 16.4325 6.69654 16.9271 7.35778 17.3668C7.41288 17.3943 7.44043 17.4217 7.49553 17.4492C7.52308 17.4767 7.55064 17.4767 7.57819 17.5042C7.63329 17.5317 7.68839 17.5591 7.71594 17.5866C7.77105 17.6141 7.82615 17.6416 7.88125 17.6691C7.93636 17.6965 7.99146 17.724 8.04656 17.7515C8.07411 17.779 8.10166 17.779 8.12921 17.8065C8.818 18.1912 9.61699 18.5759 10.6088 18.9606C10.6639 18.9881 10.719 19.0155 10.8017 19.0155L1.59954 31.3811L1.57199 31.4086L1.37913 31.6834C1.29648 31.7933 1.21383 31.9032 1.15872 31.9857L0.139323 33.3596C-0.0535363 33.6344 0.00156637 34.0191 0.27708 34.2115C0.552593 34.4038 0.938312 34.3489 1.13117 34.0741L3.36283 31.0788C5.12612 28.8256 10.2507 27.589 14.6589 29.7599C15.7885 30.3094 16.863 30.9964 17.7997 31.7384C18.1855 32.0956 18.5987 32.5078 18.8467 32.7826C18.9018 32.865 19.012 32.92 19.0947 32.92C19.2324 32.92 19.3151 32.865 19.3977 32.7276C19.4804 32.5902 19.5906 32.4253 19.8385 32.1505C21.9049 29.7873 24.2468 29.3477 27.0294 29.2927H29.3989V27.589ZM12.7854 18.411L20.1967 8.4086L20.2243 8.38112C20.3345 8.24373 20.4171 8.10633 20.4998 7.99642L20.9406 7.41935V18.7682C17.965 19.2903 14.4936 19.098 13.0058 18.7407C12.9783 18.7407 12.868 18.7133 12.8129 18.6858C12.7854 18.6858 12.6476 18.6308 12.6476 18.6308C12.6476 18.6308 12.7027 18.5209 12.7854 18.411ZM6.7241 15.5806C4.7955 14.0418 3.41793 11.871 3.41793 9.48029C3.41793 5.99044 7.08226 3.21505 11.6833 3.21505C14.3007 3.21505 16.5599 4.03943 19.1222 5.96296C19.563 6.29271 19.7834 6.54002 19.8936 6.73238L11.3527 18.2186C10.0303 17.724 8.34963 16.8722 6.7241 15.5806ZM12.6752 26.7921C12.2895 26.7921 11.9038 26.8196 11.6007 26.8471C11.6007 26.8471 11.4354 26.8471 11.1874 26.8746C11.1874 26.8746 11.1599 26.8746 11.1323 26.8746C11.0497 26.8746 10.9395 26.902 10.8292 26.902C10.8017 26.902 10.8017 26.902 10.7741 26.902C10.6088 26.9295 10.416 26.957 10.2231 26.9845C10.1956 26.9845 10.168 26.9845 10.168 26.9845C10.0854 26.9845 9.97516 27.0119 9.8925 27.0394C9.69964 27.0669 9.47923 27.0944 9.25882 27.1493C9.20372 27.1493 9.14861 27.1768 9.09351 27.1768C9.06596 27.1768 9.03841 27.1768 9.01086 27.2043C8.95576 27.2043 8.90065 27.2318 8.84555 27.2318C8.57004 27.2867 8.26697 27.3692 7.96391 27.4241C7.88125 27.4516 7.7986 27.4516 7.68839 27.4791C7.63329 27.4791 7.57819 27.5066 7.52309 27.5066C7.44043 27.534 7.38533 27.5341 7.30267 27.5615C7.30267 27.5615 7.27512 27.5615 7.24757 27.5615C6.97206 27.644 6.7241 27.6714 6.58634 27.6165C6.58634 27.6165 6.55879 27.6165 6.55879 27.589C6.55879 27.589 6.55879 27.589 6.53124 27.589C6.44858 27.5341 6.39348 27.4241 6.39348 27.3142C6.39348 27.2867 6.39348 27.2867 6.39348 27.2593C6.39348 27.2318 6.39348 27.2043 6.42103 27.1493C6.42103 27.1219 6.44858 27.0669 6.47613 27.0119C6.50368 26.957 6.53124 26.902 6.55879 26.8471C6.58634 26.7921 6.61389 26.7372 6.64144 26.6822C6.66899 26.6547 6.66899 26.6272 6.69654 26.5998C6.7241 26.5723 6.7241 26.5448 6.75165 26.4898C6.75165 26.4898 6.7792 26.4624 6.7792 26.4349L11.9589 19.4552L11.9864 19.4002L12.0966 19.4277C12.1793 19.4552 12.3446 19.4827 12.3721 19.5102C13.1711 19.7025 13.915 19.8674 14.6313 19.9773C14.714 19.9773 14.7691 20.0048 14.8517 20.0048C14.9895 20.0323 15.1273 20.0323 15.265 20.0597C15.3477 20.0597 15.4028 20.0872 15.4579 20.0872C15.513 20.0872 15.5956 20.1147 15.6507 20.1147C16.0089 20.1697 16.3946 20.1971 16.7252 20.2246C16.7528 20.2246 16.7803 20.2246 16.8079 20.2246C17.4967 20.2796 18.1579 20.2796 18.7916 20.2796L20.9406 20.1697V25.638V25.6655V26.957C20.9406 26.9845 20.9406 26.9845 20.9406 27.0119C20.9406 27.0394 20.9406 27.0669 20.9406 27.0944C20.9406 27.1219 20.9406 27.1493 20.9406 27.1768V27.2043C20.9406 27.2318 20.9406 27.2593 20.9406 27.2867V27.3142C20.9406 27.3692 20.913 27.4241 20.8855 27.4516C20.8855 27.4791 20.8579 27.4791 20.8579 27.5066L20.8304 27.534L20.8028 27.5615C20.8028 27.5615 20.8028 27.5615 20.7753 27.5615C20.7477 27.5615 20.7477 27.589 20.7202 27.589C20.6926 27.589 20.6651 27.589 20.6375 27.6165C20.3896 27.644 20.0038 27.5066 19.6732 27.4241C18.3232 27.1219 16.9732 26.902 15.5405 26.7921C14.5762 26.7646 13.6395 26.7646 12.6752 26.7921Z" fill="black"/>
<path d="M37.6626 38.4158H40.831V38.8829C40.0596 38.9104 39.5361 39.2402 38.9851 39.7898L37.5249 41.2461L40.032 44.8459C40.28 45.2031 40.4453 45.3405 40.6106 45.3405C40.7759 45.368 41.0239 45.368 41.2443 45.368V45.8352H37.7453V45.368H38.3238C38.6545 45.368 38.8198 45.3405 38.8198 45.1757C38.8198 45.0108 38.682 44.8184 38.5718 44.6261L36.7534 42.0156L35.5412 43.2521V44.8184C35.5412 45.2306 35.7065 45.3405 36.1197 45.3405H36.6983V45.8077H33.2544V45.3405H33.833C34.2462 45.3405 34.4116 45.2306 34.4116 44.8184V39.3501C34.4116 38.9379 34.2462 38.828 33.833 38.828H33.2544V38.3608H36.6708V38.828H36.0922C35.6789 38.828 35.5136 38.9379 35.5136 39.3501V42.4827L38.2412 39.7348C38.4065 39.5699 38.5718 39.2951 38.5718 39.1303C38.5718 38.9379 38.3789 38.8005 37.8279 38.8005H37.6626V38.4158Z" fill="black"/>
<path d="M43.6689 45.3679H44.2475C44.6608 45.3679 44.8261 45.258 44.8261 44.8458V39.3774C44.8261 38.9652 44.6608 38.8553 44.2475 38.8553H43.6689V38.3882H47.0853V38.8553H46.5067C46.0935 38.8553 45.9282 38.9652 45.9282 39.3774V44.8458C45.9282 45.258 46.0935 45.3679 46.5067 45.3679H47.0853V45.835H43.6689V45.3679Z" fill="black"/>
<path d="M51.356 45.368H52.0172C52.4305 45.368 52.5958 45.2581 52.5958 44.8459V39.4875C52.5958 39.0203 52.4856 38.8829 52.0999 38.8829C51.0254 38.8829 50.557 39.7348 50.3366 41.3011H49.9233L50.0886 38.4158H56.2602L56.4255 41.3011H56.0122C55.7642 39.7348 55.2959 38.8829 54.2489 38.8829C53.8632 38.8829 53.753 39.0478 53.753 39.4875V44.8459C53.753 45.2581 53.9183 45.368 54.3316 45.368H54.9928V45.8351H51.356V45.368V45.368Z" fill="black"/>
<path d="M65.1315 38.3333H65.4897L65.6274 41.3285H65.2141C64.8835 39.9545 64.1947 38.7455 62.8723 38.7455C61.3294 38.7455 60.6682 40.2568 60.6682 42.1804C60.6682 42.9223 60.7233 43.7467 61.0539 44.4336C61.4121 45.1481 62.1008 45.5603 62.8998 45.5603C64.3876 45.5603 65.1039 44.571 65.2968 43.252L65.7652 43.3345C65.5172 45.0107 64.5254 46.0274 62.7621 46.0274C61.7978 46.0274 60.8886 45.5878 60.2549 44.9008C59.6212 44.2138 59.3457 43.2795 59.3457 42.3452C59.3457 39.7897 61.1641 38.2783 62.8998 38.2783C63.4784 38.2783 64.1947 38.4982 64.6631 38.9928L65.1315 38.3333Z" fill="black"/>
<path d="M71.1928 42.2353V44.8458C71.1928 45.258 71.3581 45.3679 71.7714 45.3679H72.35V45.835H68.9336V45.3679H69.5122C69.9254 45.3679 70.0907 45.258 70.0907 44.8458V39.3774C70.0907 38.9652 69.9254 38.8553 69.5122 38.8553H68.9336V38.3882H72.35V38.8553H71.7714C71.3581 38.8553 71.1928 38.9652 71.1928 39.3774V41.7132H74.6643V39.3774C74.6643 38.9652 74.499 38.8553 74.0857 38.8553H73.5071V38.3882H76.9235V38.8553H76.3449C75.9316 38.8553 75.7663 38.9652 75.7663 39.3774V44.8458C75.7663 45.258 75.9316 45.3679 76.3449 45.3679H76.9235V45.835H73.5071V45.3679H74.0857C74.499 45.3679 74.6643 45.258 74.6643 44.8458V42.2353H71.1928Z" fill="black"/>
<path d="M79.7888 38.4158H86.0154L86.1531 41.0812H85.7399C85.3541 38.9928 84.8307 38.8829 82.8194 38.8829C82.2133 38.8829 82.048 38.9104 82.048 39.2951V41.7682H82.4062C83.3154 41.7682 83.7286 41.3835 83.7837 40.3668H84.2521V43.7467H83.7837C83.7837 42.8399 83.4256 42.2354 82.599 42.2354H82.0204V45.0108C82.0204 45.368 82.1582 45.4229 82.7919 45.4229C85.1888 45.4229 85.3541 45.2031 85.8776 43.1422H86.2909L86.098 45.8901H79.7612V45.4229H80.3398C80.7531 45.4229 80.9184 45.313 80.9184 44.9008V39.4325C80.9184 39.0203 80.7531 38.9104 80.3398 38.9104H79.7612V38.4158H79.7888Z" fill="black"/>
<path d="M94.446 38.4158H97.3664V38.8829C96.8705 38.9104 96.5123 39.0203 96.3746 39.2951C96.2368 39.5699 96.1817 39.9271 96.1817 40.4767V46.0275H95.7684L91.1949 39.7073H91.1674V44.1864C91.1674 45.0108 91.2776 45.368 92.3796 45.4229V45.8901H89.4592V45.4229C90.3684 45.3955 90.6439 45.0382 90.6439 44.2139V39.2676C90.4235 38.9654 90.148 38.9379 89.597 38.9379H89.4316V38.4707H91.5531L95.6031 44.0215H95.6307V40.3943C95.6307 39.46 95.5205 38.9654 94.446 38.9379V38.4158V38.4158Z" fill="black"/>
<path d="M111.721 38.4158H115.633C117.203 38.4158 117.975 39.2401 117.975 40.1744C117.975 41.2736 117.148 41.8507 116.156 41.9606V41.9881C117.562 42.1254 118.361 42.8124 118.361 43.8017C118.361 45.2031 117.286 45.8626 115.413 45.8626H111.748V45.3955H112.327C112.74 45.3955 112.905 45.2855 112.905 44.8734V39.405C112.905 38.9928 112.74 38.8829 112.327 38.8829H111.748V38.4158H111.721ZM113.98 41.7133C114.228 41.7407 114.476 41.7407 114.696 41.7407C116.294 41.7407 116.763 41.2461 116.763 40.2843C116.763 39.7897 116.652 39.4325 116.294 39.1577C115.964 38.9104 115.743 38.8829 114.806 38.8829C114.145 38.8829 113.98 39.0478 113.98 39.46V41.7133V41.7133ZM113.98 44.736C113.98 45.2855 114.063 45.368 114.862 45.368C116.129 45.368 117.093 45.2306 117.093 43.8292C117.093 42.5102 116.404 42.1804 114.834 42.1804C114.558 42.1804 114.255 42.1804 113.98 42.2079V44.736Z" fill="black"/>
<path d="M121.061 45.3681C121.612 45.3681 121.942 45.0658 122.135 44.5712L124.642 38.251H125.056L127.783 44.9284C127.949 45.3131 128.114 45.3681 128.692 45.3681V45.8352H125.524V45.3681H125.772C126.378 45.3681 126.571 45.2856 126.571 45.0933C126.571 45.0108 126.516 44.846 126.433 44.5986L125.937 43.3896H123.155L122.879 44.2139C122.769 44.4887 122.714 44.6811 122.714 44.791C122.714 45.2856 123.155 45.3681 123.761 45.3681V45.8352H121.033V45.3681H121.061ZM125.744 42.8675L124.532 39.8722L123.348 42.8675H125.744Z" fill="black"/>
<path d="M131.172 38.4158H134.919C136.076 38.4158 137.481 38.8554 137.481 40.2569C137.481 41.411 136.489 42.0155 135.084 42.098V42.1254C135.938 42.2079 136.462 42.675 136.682 43.5269L136.93 44.4612C137.123 45.1756 137.261 45.2855 137.426 45.2855C137.702 45.2855 137.784 44.9283 137.839 44.2413H138.253C138.253 45.4779 137.812 46.0275 136.958 46.0275C136.352 46.0275 135.828 45.6703 135.718 44.2139C135.608 42.8124 135.305 42.2354 134.037 42.2354H133.459V44.9008C133.459 45.313 133.624 45.4229 134.037 45.4229H134.616V45.8901H131.199V45.4229H131.778C132.191 45.4229 132.357 45.313 132.357 44.9008V39.4325C132.357 39.0203 132.191 38.9104 131.778 38.9104H131.199V38.4158H131.172ZM133.431 41.7133C133.707 41.7133 133.982 41.7407 134.23 41.7407C135.773 41.7407 136.241 41.3011 136.241 40.2569C136.241 39.7897 136.186 39.46 135.911 39.1852C135.635 38.9379 135.139 38.8829 134.092 38.8829C133.569 38.8829 133.431 38.9653 133.431 39.46V41.7133Z" fill="black"/>
<path d="M104.723 46H104.502C104.392 46 104.282 45.8901 104.282 45.7802V38.6356C104.282 38.5257 104.392 38.4158 104.502 38.4158H104.723C104.833 38.4158 104.943 38.5257 104.943 38.6356V45.7802C104.943 45.8901 104.833 46 104.723 46Z" fill="black"/>
<path d="M108.415 42.0704V42.2902C108.415 42.4002 108.305 42.5101 108.194 42.5101H101.031C100.921 42.5101 100.811 42.4002 100.811 42.2902V42.0704C100.811 41.9605 100.921 41.8506 101.031 41.8506H108.194C108.305 41.8506 108.415 41.9605 108.415 42.0704Z" fill="black"/>
</g>
<defs>
<clipPath >
<rect width="169" height="46" fill="white"/>
</clipPath>
</defs>
</svg>
