<svg width="140" height="32" viewBox="0 0 140 32" fill="none" xmlns="http://www.w3.org/2000/svg">
<g clip-path="url(#clip0)">
<path d="M74.9443 31.1731H66.6329V0.824702H74.9408V5.78115C75.8758 3.95983 77.3131 2.44662 79.0814 1.4219C80.8498 0.397173 82.8746 -0.0958464 84.9144 0.00159558C93.0841 0.00159558 96.0613 5.5127 96.0613 12.2523V31.1731H87.7534V13.9003C87.7534 9.22293 85.8838 6.53671 81.799 6.53671C77.576 6.53671 74.9443 9.83804 74.9443 14.9314V31.1731V31.1731ZM115.19 32.0016C112.042 31.9665 108.974 30.9975 106.374 29.2166C103.774 27.4357 101.757 24.9227 100.578 21.9941C99.3993 19.0655 99.1107 15.8524 99.7488 12.7595C100.387 9.66667 101.923 6.83249 104.164 4.61404C106.405 2.39558 109.251 0.892103 112.342 0.293032C115.433 -0.30604 118.632 0.0260892 121.535 1.24758C124.439 2.46907 126.917 4.52528 128.658 7.15714C130.398 9.78899 131.323 12.8788 131.316 16.0371C131.316 25.4647 124.671 32.0016 115.19 32.0016ZM115.19 25.7385C120.313 25.7385 122.945 21.7491 122.945 16.0371C122.945 10.2523 120.313 6.25937 115.19 6.25937C110.136 6.25937 107.506 10.2487 107.506 16.0371C107.502 21.7474 110.132 25.7367 115.19 25.7367V25.7385ZM21.117 0.824702H29.4177V31.1731H21.1099V26.2167C20.1764 28.0373 18.741 29.5505 16.9747 30.5761C15.2084 31.6016 13.1855 32.0965 11.1468 32.0016C2.9772 32.0016 0 26.4905 0 19.7527V0.824702H8.30785V18.0994C8.30785 22.7767 10.1775 25.4629 14.2623 25.4629C18.4853 25.4629 21.117 22.158 21.117 17.0647V0.824702ZM55.7147 22.542C54.9787 23.6329 53.9641 24.5054 52.777 25.0683C51.5898 25.6313 50.2738 25.8639 48.9663 25.742C46.8591 25.8139 44.8079 25.0532 43.254 23.6237C41.7 22.1941 40.7674 20.2098 40.6567 18.0976H63.5742V15.1394C63.5742 6.88159 58.4509 -0.000181225 48.4808 -0.000181225C46.3354 -0.0397975 44.2048 0.361605 42.2199 1.17932C40.2351 1.99703 38.4382 3.21373 36.9399 4.75447C35.4415 6.29521 34.2735 8.12738 33.5077 10.1381C32.7419 12.1488 32.3946 14.2956 32.4871 16.446C32.4871 26.0105 39.2727 31.998 48.6881 31.998C54.6603 31.998 59.1438 29.6709 61.6248 25.5714L55.7147 22.542ZM48.4116 6.05493C49.3294 6.02633 50.2436 6.18316 51.0998 6.51608C51.956 6.849 52.7367 7.35123 53.3955 7.9929C54.0543 8.63457 54.5778 9.40258 54.9348 10.2513C55.2918 11.1 55.4751 12.012 55.4737 12.9332H40.7949C41.557 9.1536 43.843 6.0567 48.4116 6.0567V6.05493ZM135.828 31.8327C134.727 31.8379 133.67 31.4043 132.887 30.6272C132.105 29.8501 131.662 28.7931 131.657 27.6887V27.5109C131.659 26.9639 131.769 26.4228 131.98 25.9184C132.191 25.414 132.499 24.9563 132.887 24.5713C133.274 24.1863 133.733 23.8817 134.238 23.6747C134.743 23.4678 135.283 23.3626 135.828 23.3651V23.3651C136.374 23.3626 136.915 23.4679 137.42 23.6752C137.925 23.8825 138.385 24.1877 138.772 24.5732C139.159 24.9587 139.467 25.4171 139.678 25.9221C139.889 26.4271 139.998 26.9688 140 27.5163V27.694C139.994 28.7981 139.551 29.8546 138.769 30.6314C137.987 31.4081 136.929 31.8415 135.828 31.8363V31.8327Z" fill="black"/>
</g>
<defs>
<clipPath id="clip0">
<rect width="140" height="32" fill="white"/>
</clipPath>
</defs>
</svg>
