<svg width="189" height="47" viewBox="0 0 189 47" fill="none" xmlns="http://www.w3.org/2000/svg">
<path fill-rule="evenodd" clip-rule="evenodd" d="M65.9893 37.8187H65.104V37.5865C65.104 36.9721 64.6722 36.9721 63.7765 36.9721C62.7078 36.9721 62.1894 36.9606 62.1894 37.7141C62.1894 38.8046 62.4703 38.7231 63.3554 38.7693C64.8126 38.8627 66.1403 38.6188 66.1403 40.6021C66.1403 42.3184 65.0396 42.3877 63.7765 42.3877C62.5458 42.3877 61.261 42.3184 61.261 40.9614V40.3933H62.1463V40.8684C62.1463 41.4483 62.4811 41.576 63.7765 41.576C64.3593 41.576 65.2552 41.7153 65.2552 40.6368C65.2552 39.5001 64.8126 39.7087 63.7765 39.6394C62.5458 39.5467 61.3043 39.6856 61.3043 37.9578C61.3043 36.1951 62.2434 36.1602 63.7765 36.1602C64.7696 36.1602 65.9893 36.2069 65.9893 37.5865V37.8187Z" fill="black"/>
<path fill-rule="evenodd" clip-rule="evenodd" d="M68.3525 38.6539H68.6978L70.7382 36.2302H71.7853L69.3565 39.0248L72.2279 42.3186H71.1053L68.6978 39.3959H68.3525V42.3186H67.4998V33.6208H68.3525V38.6539Z" fill="black"/>
<path fill-rule="evenodd" clip-rule="evenodd" d="M76.3201 34.3282L74.5823 35.4877L74.2908 35.0124L75.8992 33.7021L76.3201 34.3282ZM75.3056 41.6458C76.8276 41.6458 76.9354 41.3905 76.9354 39.2797C76.9354 37.1577 76.8276 36.9026 75.3056 36.9026C73.7833 36.9026 73.6755 37.1577 73.6755 39.2797C73.6755 41.3905 73.7833 41.6458 75.3056 41.6458ZM75.3056 36.1605C77.4106 36.1605 77.8207 36.7055 77.8207 39.2797C77.8207 41.8431 77.4106 42.3878 75.3056 42.3878C73.2004 42.3878 72.79 41.8431 72.79 39.2797C72.79 36.7055 73.2004 36.1605 75.3056 36.1605Z" fill="black"/>
<path fill-rule="evenodd" clip-rule="evenodd" d="M79.3206 42.3183H80.1733V33.6204H79.3206V42.3183Z" fill="black"/>
<path fill-rule="evenodd" clip-rule="evenodd" d="M81.8364 42.3183H82.6892V36.2299H81.8364V42.3183ZM81.8364 34.6294H82.6892V33.6204H81.8364V34.6294Z" fill="black"/>
<path fill-rule="evenodd" clip-rule="evenodd" d="M92.1127 40.5091C92.1127 39.361 91.4759 39.3727 90.3963 39.3727C89.3817 39.3727 88.9714 39.4423 88.9714 40.4281C88.9714 41.5878 89.4139 41.6458 90.3963 41.6458C91.2491 41.6458 92.1127 41.6225 92.1127 40.5091ZM92.1344 42.3182V41.6924L92.1127 41.6687C91.7889 42.3646 90.9576 42.3879 90.245 42.3879C88.9714 42.3879 88.0859 42.1323 88.0859 40.5439C88.0859 38.8627 88.8957 38.6306 90.299 38.6306C90.8604 38.6306 91.9615 38.6884 92.0802 39.2452H92.1344V38.12C92.1344 37.007 91.5837 36.9024 90.6232 36.9024C89.9537 36.9024 89.1332 36.9024 89.1439 37.7374V37.9464H88.2588V37.8187C88.2588 36.2533 89.2627 36.1487 90.526 36.1602C91.9509 36.1487 92.998 36.3113 92.9871 38.1663V42.3182H92.1344Z" fill="black"/>
<path fill-rule="evenodd" clip-rule="evenodd" d="M97.6504 36.9722H95.4592V40.8343C95.4701 41.4948 95.6319 41.6458 96.258 41.6458C97.0568 41.6458 97.0568 41.1933 97.0568 40.6132V40.1612H97.8664V40.6132C97.8664 41.8194 97.4025 42.3878 96.2365 42.3878C94.9088 42.3878 94.6061 41.9817 94.6061 40.5559V36.9722H93.8511V36.2302H94.6061V34.7571H95.4592V36.2302H97.6504V36.9722Z" fill="black"/>
<path fill-rule="evenodd" clip-rule="evenodd" d="M101.105 42.3184H99.9064L98.0281 36.23H98.8921L100.5 41.6223H100.522L102.076 36.23H103.005L101.105 42.3184Z" fill="black"/>
<path fill-rule="evenodd" clip-rule="evenodd" d="M103.901 42.3183H104.754V36.2299H103.901V42.3183ZM103.901 34.6294H104.754V33.6204H103.901V34.6294Z" fill="black"/>
<path fill-rule="evenodd" clip-rule="evenodd" d="M107.29 36.9721H107.312C107.581 36.2417 108.413 36.1602 109.06 36.1602C110.518 36.1602 111.22 36.5779 111.198 38.2709V42.3184H110.345V38.2013C110.345 37.0881 109.946 36.9022 108.985 36.9022C107.592 36.9022 107.29 37.3665 107.29 38.7693V42.3184H106.437V36.23H107.29V36.9721Z" fill="black"/>
<path fill-rule="evenodd" clip-rule="evenodd" d="M113.757 36.9721H113.779C114.049 36.2417 114.879 36.1602 115.527 36.1602C116.985 36.1602 117.686 36.5779 117.665 38.2709V42.3184H116.812V38.2013C116.812 37.0881 116.412 36.9022 115.452 36.9022C114.059 36.9022 113.757 37.3665 113.757 38.7693V42.3184H112.904V36.23H113.757V36.9721Z" fill="black"/>
<path fill-rule="evenodd" clip-rule="evenodd" d="M123.159 41.5065H123.137C122.835 42.2489 122.112 42.3878 121.367 42.3878C119.866 42.3878 119.337 41.7385 119.337 40.1378V36.23H120.19V40.1378C120.19 41.1237 120.255 41.6458 121.356 41.6458C122.554 41.6458 123.17 41.437 123.17 39.9872V36.23H124.022V42.3184H123.159V41.5065Z" fill="black"/>
<path fill-rule="evenodd" clip-rule="evenodd" d="M125.717 42.3183H126.57V33.6204H125.717V42.3183Z" fill="black"/>
<path fill-rule="evenodd" clip-rule="evenodd" d="M128.232 42.3184H129.085V36.23H128.232V42.3184ZM129.679 34.3279L127.941 35.4875L127.65 35.0122L129.258 33.7019L129.679 34.3279Z" fill="black"/>
<path fill-rule="evenodd" clip-rule="evenodd" d="M133.339 36.23V36.9721H131.838V42.3182H130.985V36.9721H130.122V36.23H130.985V35.4996C130.985 34.0151 131.417 33.551 132.809 33.551C132.982 33.551 133.166 33.5627 133.339 33.5743V34.3164C133.166 34.3047 132.982 34.2931 132.809 34.2931C131.957 34.2931 131.838 34.5946 131.838 35.4065V36.23H133.339Z" fill="black"/>
<path fill-rule="evenodd" clip-rule="evenodd" d="M138.735 37.8187H137.85V37.5865C137.85 36.9721 137.419 36.9721 136.522 36.9721C135.454 36.9721 134.936 36.9606 134.936 37.7141C134.936 38.8046 135.216 38.7231 136.101 38.7693C137.559 38.8627 138.887 38.6188 138.887 40.6021C138.887 42.3184 137.786 42.3877 136.522 42.3877C135.291 42.3877 134.007 42.3184 134.007 40.9614V40.3933H134.892V40.8684C134.892 41.4483 135.227 41.576 136.522 41.576C137.105 41.576 138.001 41.7153 138.001 40.6368C138.001 39.5001 137.559 39.7087 136.522 39.6394C135.291 39.5467 134.05 39.6856 134.05 37.9578C134.05 36.1951 134.989 36.1602 136.522 36.1602C137.515 36.1602 138.735 36.2069 138.735 37.5865V37.8187Z" fill="black"/>
<path fill-rule="evenodd" clip-rule="evenodd" d="M140.248 42.3183H141.1V36.2299H140.248V42.3183ZM140.248 34.6294H141.1V33.6204H140.248V34.6294Z" fill="black"/>
<path fill-rule="evenodd" clip-rule="evenodd" d="M143.637 36.9721H143.658C143.928 36.2417 144.76 36.1602 145.407 36.1602C146.865 36.1602 147.566 36.5779 147.545 38.2709V42.3184H146.692V38.2013C146.692 37.0881 146.293 36.9022 145.332 36.9022C143.94 36.9022 143.637 37.3665 143.637 38.7693V42.3184H142.784V36.23H143.637V36.9721Z" fill="black"/>
<path fill-rule="evenodd" clip-rule="evenodd" d="M153.729 37.8187H152.845V37.5865C152.845 36.9721 152.412 36.9721 151.517 36.9721C150.448 36.9721 149.93 36.9606 149.93 37.7141C149.93 38.8046 150.21 38.7231 151.095 38.7693C152.553 38.8627 153.881 38.6188 153.881 40.6021C153.881 42.3184 152.78 42.3877 151.517 42.3877C150.286 42.3877 149.001 42.3184 149.001 40.9614V40.3933H149.887V40.8684C149.887 41.4483 150.221 41.576 151.517 41.576C152.1 41.576 152.995 41.7153 152.995 40.6368C152.995 39.5001 152.553 39.7087 151.517 39.6394C150.286 39.5467 149.044 39.6856 149.044 37.9578C149.044 36.1951 149.983 36.1602 151.517 36.1602C152.509 36.1602 153.729 36.2069 153.729 37.5865V37.8187Z" fill="black"/>
<path fill-rule="evenodd" clip-rule="evenodd" d="M152.249 14.5243C153.16 15.2558 153.882 16.4473 153.882 18.4086V27.3441H150.714V19.0063C150.714 19.0063 150.809 16.9891 149.668 16.477C148.611 16.0385 147.428 16.0195 145.495 16.0195H145.396V27.3441H142.229V13.3875H147.68C149.228 13.3875 150.82 13.393 152.249 14.5243Z" fill="black"/>
<path fill-rule="evenodd" clip-rule="evenodd" d="M137.368 14.5243C138.278 15.2558 139 16.4473 139 18.4086V27.3441H135.832L135.832 19.0063C135.832 19.0063 135.927 16.9891 134.785 16.477C133.729 16.0385 132.546 16.0195 130.613 16.0195H130.513V27.3441H127.346V13.3875H132.797C134.346 13.3875 135.938 13.393 137.368 14.5243Z" fill="black"/>
<path fill-rule="evenodd" clip-rule="evenodd" d="M120.952 24.2472V13.3915H124.119V27.6232C122.064 27.627 120.967 26.1086 120.952 24.2472ZM120.952 10.1284H124.119V7.2146H120.952V10.1284Z" fill="black"/>
<path fill-rule="evenodd" clip-rule="evenodd" d="M114.471 24.2472V7.2146H117.638V27.6232C115.583 27.627 114.486 26.1086 114.471 24.2472Z" fill="black"/>
<path fill-rule="evenodd" clip-rule="evenodd" d="M80.0288 17.1441C80.0288 15.4438 79.1995 15.4438 77.515 15.4438C75.8317 15.4438 74.6765 15.4438 74.6765 17.3061C74.6765 18.7097 75.0279 18.7639 77.7917 18.899C80.9079 19.0599 83.6724 18.8175 83.6724 23.4061C83.6724 27.2404 80.8571 27.619 77.515 27.619C73.9226 27.619 71.5098 27.619 71.5098 23.0015H74.6765C74.7263 25.053 75.179 25.2959 77.515 25.2959C79.4005 25.2959 80.5057 25.3496 80.5057 23.4061C80.5057 22.1644 80.43 21.5439 77.2391 21.4897C72.3891 21.409 71.5098 20.7072 71.5098 17.0901C71.5098 13.2031 74.1227 13.1216 77.515 13.1216C80.1033 13.1216 83.1943 13.1762 83.1943 17.1441H80.0288Z" fill="black"/>
<path fill-rule="evenodd" clip-rule="evenodd" d="M65.2944 24.2472V13.3915H68.4609V27.6232C66.4066 27.627 65.309 26.1086 65.2944 24.2472ZM65.2944 10.1284H68.4609V7.2146H65.2944V10.1284Z" fill="black"/>
<path fill-rule="evenodd" clip-rule="evenodd" d="M30.7926 18.8445C30.7926 15.9297 30.3904 15.7135 27.802 15.7135C25.0631 15.7135 24.8877 16.3349 24.8877 18.8445H30.7926ZM15.916 23.1099C15.916 25.107 16.6699 25.2958 18.8058 25.2958C20.4901 25.2958 21.721 25.1338 21.721 23.1099C21.721 21.1393 20.3645 21.0844 18.8058 21.0844C17.198 21.0844 15.916 21.0844 15.916 23.1099ZM21.721 18.5479C21.721 16.2534 21.5454 15.4438 18.9069 15.4438C17.5248 15.4438 16.4186 15.5785 16.4186 17.4144H13.2531C13.2531 13.2843 15.8916 13.1213 18.9069 13.1213C19.912 13.1213 22.9276 13.0411 23.4045 14.9577H23.48C24.058 13.203 26.4955 13.1213 27.802 13.1213C33.2299 13.1213 33.9581 14.8224 33.9581 21.0042H24.8877C24.8877 24.0543 24.9622 25.0261 27.802 25.0261C29.5607 25.0261 30.7926 25.0532 30.7926 22.9479H33.9581C33.9581 27.4026 31.5709 27.6189 27.802 27.6189C26.0684 27.6189 23.7058 27.4561 23.0531 25.3771H22.9774C22.2993 27.5376 19.861 27.6189 17.675 27.6189C14.6853 27.6189 12.7507 26.944 12.7507 23.1099C12.7507 19.7085 14.4086 18.7641 17.675 18.7641C19.2839 18.7641 20.8669 18.7901 21.6211 20.437H21.721V18.5479Z" fill="black"/>
<path fill-rule="evenodd" clip-rule="evenodd" d="M60.4343 14.5243C61.3456 15.2558 62.0667 16.4473 62.0667 18.4086V27.3441H58.8993V19.0063C58.8993 19.0063 58.9937 16.9891 57.853 16.477C56.7958 16.0385 55.6129 16.0195 53.6804 16.0195H53.5803V27.3441H50.4136V13.3875H55.8642C57.4131 13.3875 59.0053 13.393 60.4343 14.5243Z" fill="black"/>
<path fill-rule="evenodd" clip-rule="evenodd" d="M43.3721 19.9513L48.9167 27.3438H45.1042L40.7846 21.1119H40.0054V27.3438H36.8389V7.21069H40.0054V18.7901H40.7846L44.4062 13.3914H47.9709L43.3721 19.9513Z" fill="black"/>
<path fill-rule="evenodd" clip-rule="evenodd" d="M14.6914 7.21411H0V9.84653H5.76243V24.2427C5.77682 26.1047 6.87455 27.6231 8.92892 27.6191V9.84653H14.6914V7.21411Z" fill="black"/>
<path fill-rule="evenodd" clip-rule="evenodd" d="M89.6433 18.7901H90.4225L94.0439 13.3912H97.6086L93.0098 19.9513L98.555 27.3438H94.7417L90.4225 21.1119H89.6433V27.3438H86.4766V7.21069H89.6433V18.7901Z" fill="black"/>
<path fill-rule="evenodd" clip-rule="evenodd" d="M107.873 9.23329L102.999 11.5549L102.319 10.1517L106.742 7.02026L107.873 9.23329ZM102.043 20.4095C102.043 24.1892 102.269 25.0261 105.084 25.0261C107.899 25.0261 108.125 24.1892 108.125 20.4095C108.125 16.5771 107.899 15.7131 105.084 15.7131C102.269 15.7131 102.043 16.5771 102.043 20.4095ZM111.291 20.3833C111.291 25.8641 110.587 27.6185 105.084 27.6185C99.5807 27.6185 98.8767 25.8641 98.8767 20.3833C98.8767 14.8762 99.5807 13.1212 105.084 13.1212C110.587 13.1212 111.291 14.8762 111.291 20.3833Z" fill="black"/>
<path fill-rule="evenodd" clip-rule="evenodd" d="M162.561 8.51487C162.329 8.9313 162.277 9.30011 162.275 10.0295C162.263 14.5885 162.553 19.7396 165.688 24.0706C167.783 26.9664 172.964 32.4252 174.751 35.856C177.029 40.2295 178.046 42.99 178.478 45.4742C178.644 46.4299 178.833 46.9268 179.348 46.9268C179.775 46.9268 180.176 46.548 180.313 45.3699C180.621 42.418 180.85 38.629 179.888 35.3182C178.554 30.7226 175.667 26.2553 170.806 21.261C166.822 17.1673 164.741 13.5754 164.073 9.60942C163.991 9.12671 163.97 8.86864 163.701 8.51529C163.277 7.9587 162.716 8.23837 162.561 8.51487Z" fill="black"/>
<path fill-rule="evenodd" clip-rule="evenodd" d="M188.974 8.62759C188.986 12.7172 188.724 17.3385 185.913 21.2236C184.032 23.8215 179.385 28.7186 177.782 31.7963C175.738 35.7206 174.826 38.1955 174.439 40.4246C174.29 41.282 174.12 41.7274 173.658 41.7274C173.275 41.7274 172.915 41.3872 172.793 40.3306C172.516 37.6825 172.311 34.2843 173.174 31.314C174.371 27.1911 176.96 23.1838 181.321 18.7027C184.895 15.0308 186.763 11.8086 187.361 8.25096C187.434 7.81801 187.454 7.58661 187.695 7.26946C188.076 6.77003 188.579 7.02091 188.717 7.26904C188.925 7.64271 188.972 7.97383 188.974 8.62759Z" fill="black"/>
<path fill-rule="evenodd" clip-rule="evenodd" d="M175.275 26.4368C174.341 28.0689 173.648 29.6825 173.175 31.3142C173.025 31.831 172.909 32.3607 172.818 32.8967C173.612 33.9648 174.293 34.9772 174.751 35.8558C174.971 36.2759 175.174 36.6768 175.37 37.0685C175.909 35.606 176.68 33.9132 177.783 31.7965C177.903 31.5659 178.042 31.3241 178.193 31.0752C177.414 29.5455 176.446 28.0075 175.275 26.4368Z" fill="black"/>
<path fill-rule="evenodd" clip-rule="evenodd" d="M167.342 0.32049C167.109 0.736927 167.057 1.10594 167.055 1.83508C167.042 6.39386 167.333 11.545 170.468 15.8758C172.563 18.7722 177.744 24.231 179.531 27.6618C181.809 32.0355 182.826 34.7958 183.258 37.2801C183.424 38.2359 183.613 38.7318 184.128 38.7318C184.555 38.7318 184.956 38.3539 185.093 37.1746C185.401 34.2238 185.63 30.4348 184.668 27.124C183.333 22.5284 180.448 18.0613 175.585 13.0664C171.602 8.97294 169.52 5.38103 168.852 1.41504C168.771 0.932548 168.75 0.674472 168.481 0.321125C168.056 -0.235677 167.495 0.0439941 167.342 0.32049Z" fill="black"/>
</svg>
